<?xml version="1.0" encoding="UTF-8"?>
<svg id="Layer_1" data-name="Layer 1" xmlns="http://www.w3.org/2000/svg" viewBox="0 0 144 144">
  <defs>
    <style>
      .cls-1 {
        fill: #929ecc;
      }

      .cls-2 {
        fill: none;
      }

      .cls-3 {
        fill: #5f6887;
      }
    </style>
  </defs>
  <path class="cls-2" d="M41.3,38.78v12.08h6.04v-12.08h-6.04ZM41.3,38.78v24.17h6.04v-24.17h-6.04ZM41.3,38.78v24.17h6.04v-24.17h-6.04ZM41.3,38.78v24.17h6.04v-24.17h-6.04ZM41.3,38.78v24.17h6.04v-24.17h-6.04ZM47.34,93.15v6.04h6.04v-6.04h-6.04ZM41.3,38.78v24.17h6.04v-24.17h-6.04ZM47.34,93.15v6.04h6.04v-6.04h-6.04ZM41.3,38.78v24.17h6.04v-24.17h-6.04ZM47.34,93.15v6.04h6.04v-6.04h-6.04ZM41.3,38.78v24.17h6.04v-24.17h-6.04ZM47.34,93.15v6.04h6.04v-6.04h-6.04ZM41.3,38.78v24.17h6.04v-24.17h-6.04ZM47.34,93.15v6.04h6.04v-6.04h-6.04ZM41.3,38.78v24.17h6.04v-24.17h-6.04ZM47.34,93.15v6.04h6.04v-6.04h-6.04ZM41.3,38.78v24.17h6.04v-24.17h-6.04ZM47.34,93.15v6.04h6.04v-6.04h-6.04ZM41.3,38.78v24.17h6.04v-24.17h-6.04ZM47.34,93.15v6.04h6.04v-6.04h-6.04ZM41.3,38.78v24.17h6.04v-24.17h-6.04ZM47.34,93.15v6.04h6.04v-6.04h-6.04ZM41.3,38.78v24.17h6.04v-24.17h-6.04ZM47.34,93.15v6.04h6.04v-6.04h-6.04ZM41.3,38.78v24.17h6.04v-24.17h-6.04ZM47.34,93.15v6.04h6.04v-6.04h-6.04ZM47.34,38.78h-6.04v24.17h6.04v-24.17ZM-7.03-3.51v151.03h151.03V-3.51H-7.03ZM83.59,111.28h-18.12v12.08h-6.05v-12.08h-12.08v-12.09h6.04v-6.04h-12.08v12.08h-6.04v-18.12h6.04v-6.04h-12.08v-12.08h6.04v-6.04h12.08V26.7h6.04v-6.04h42.29v6.04h6.04v18.12h-6.04v12.08h6.04v6.05h6.05v6.04h6.04v12.08h-6.04v6.04h6.04v18.12h-6.04v-12.08h-12.09v6.04h6.04v12.09h-12.08v12.08h-6.04v-12.08ZM41.3,38.78v24.17h6.04v-24.17h-6.04ZM47.34,93.15v6.04h6.04v-6.04h-6.04ZM41.3,38.78v24.17h6.04v-24.17h-6.04ZM47.34,93.15v6.04h6.04v-6.04h-6.04ZM41.3,38.78v24.17h6.04v-24.17h-6.04ZM47.34,93.15v6.04h6.04v-6.04h-6.04ZM41.3,38.78v24.17h6.04v-24.17h-6.04ZM47.34,93.15v6.04h6.04v-6.04h-6.04ZM41.3,38.78v24.17h6.04v-24.17h-6.04ZM47.34,93.15v6.04h6.04v-6.04h-6.04ZM41.3,38.78v24.17h6.04v-24.17h-6.04ZM47.34,93.15v6.04h6.04v-6.04h-6.04ZM41.3,38.78v24.17h6.04v-24.17h-6.04ZM47.34,93.15v6.04h6.04v-6.04h-6.04ZM41.3,38.78v24.17h6.04v-24.17h-6.04ZM47.34,93.15v6.04h6.04v-6.04h-6.04ZM41.3,38.78v24.17h6.04v-24.17h-6.04ZM47.34,93.15v6.04h6.04v-6.04h-6.04ZM41.3,38.78v24.17h6.04v-24.17h-6.04ZM47.34,93.15v6.04h6.04v-6.04h-6.04ZM41.3,38.78v24.17h6.04v-24.17h-6.04ZM47.34,93.15v6.04h6.04v-6.04h-6.04ZM41.3,38.78v24.17h6.04v-24.17h-6.04ZM41.3,38.78v24.17h6.04v-24.17h-6.04ZM41.3,38.78v24.17h6.04v-24.17h-6.04ZM41.3,38.78v24.17h6.04v-24.17h-6.04Z"/>
  <rect x="59.42" y="111.28" width="6.05" height="12.08"/>
  <rect x="83.59" y="111.28" width="6.04" height="12.08"/>
  <rect x="65.47" y="99.19" width="6.04" height="12.09"/>
  <rect x="89.63" y="99.19" width="6.04" height="12.09"/>
  <rect class="cls-3" x="71.51" y="99.19" width="18.12" height="12.09"/>
  <rect class="cls-3" x="95.67" y="99.19" width="6.04" height="12.09"/>
  <rect class="cls-3" x="47.34" y="99.19" width="18.13" height="12.09"/>
  <polygon class="cls-3" points="101.71 26.7 101.71 44.82 59.42 44.82 59.42 56.9 77.55 56.9 77.55 75.03 53.38 75.03 53.38 68.99 47.34 68.99 47.34 26.7 53.38 26.7 53.38 20.66 95.67 20.66 95.67 26.7 101.71 26.7"/>
  <rect class="cls-1" x="47.34" y="68.99" width="6.04" height="6.04"/>
  <rect class="cls-1" x="35.26" y="62.95" width="12.08" height="6.04"/>
  <rect x="107.76" y="99.19" width="6.04" height="6.04"/>
  <rect class="cls-1" x="107.76" y="93.15" width="6.04" height="6.04"/>
  <polygon class="cls-3" points="113.8 75.03 113.8 81.07 95.67 81.07 95.67 75.03 89.63 75.03 89.63 56.9 101.71 56.9 101.71 68.99 107.76 68.99 107.76 75.03 113.8 75.03"/>
  <rect class="cls-1" x="107.76" y="68.99" width="6.04" height="6.04"/>
  <polygon points="113.8 87.11 113.8 93.15 101.71 93.15 101.71 81.07 107.76 81.07 107.76 87.11 113.8 87.11"/>
  <rect class="cls-1" x="101.71" y="62.95" width="6.05" height="6.04"/>
  <polygon points="95.67 44.82 95.67 56.9 89.63 56.9 89.63 75.03 95.67 75.03 95.67 81.07 53.38 81.07 53.38 75.03 77.55 75.03 77.55 56.9 59.42 56.9 59.42 44.82 95.67 44.82"/>
  <rect x="35.26" y="99.19" width="6.04" height="6.04"/>
  <polygon class="cls-3" points="101.71 81.07 101.71 93.15 47.34 93.15 47.34 81.07 29.22 81.07 29.22 75.03 35.26 75.03 35.26 68.99 47.34 68.99 47.34 75.03 53.38 75.03 53.38 81.07 101.71 81.07"/>
  <polygon points="47.34 81.07 47.34 93.15 35.26 93.15 35.26 87.11 41.3 87.11 41.3 81.07 47.34 81.07"/>
  <rect class="cls-1" x="29.22" y="68.99" width="6.04" height="6.04"/>
  <rect class="cls-1" x="53.38" y="93.15" width="42.29" height="6.04"/>
  <rect class="cls-1" x="35.26" y="93.15" width="6.04" height="6.04"/>
</svg>