<?xml version="1.0" encoding="UTF-8"?>
<svg id="Layer_1" data-name="Layer 1" xmlns="http://www.w3.org/2000/svg" viewBox="0 0 169.75 151.26">
  <defs>
    <style>
      .cls-1 {
        fill: #eae653;
      }

      .cls-2 {
        fill: #48240d;
      }
    </style>
  </defs>
  <rect x="124.79" y="93.6" width="18.27" height="30.2"/>
  <rect class="cls-2" x="149.16" y="105.68" width="18.27" height="6.04"/>
  <polygon class="cls-1" points="149.16 105.68 149.16 111.72 161.34 111.72 161.34 123.8 167.43 123.8 167.43 129.84 118.69 129.84 118.69 123.8 143.06 123.8 143.06 93.6 118.69 93.6 118.69 87.55 167.43 87.55 167.43 93.6 161.34 93.6 161.34 105.68 149.16 105.68"/>
  <rect class="cls-2" x="98.93" y="105.68" width="25.86" height="6.04"/>
  <polygon class="cls-2" points="50.6 27.14 50.6 33.18 44.56 33.18 44.56 39.22 32.48 39.22 32.48 33.18 26.44 33.18 26.44 21.09 32.48 21.09 32.48 27.14 50.6 27.14"/>
  <polygon class="cls-2" points="92.9 27.14 92.9 33.18 98.94 33.18 98.94 39.22 111.02 39.22 111.02 33.18 117.06 33.18 117.06 21.09 111.02 21.09 111.02 27.14 92.9 27.14"/>
  <rect x="56.64" y="117.76" width="6.05" height="12.08"/>
  <rect x="80.81" y="117.76" width="6.04" height="12.08"/>
  <rect x="62.69" y="105.67" width="6.04" height="12.09"/>
  <rect x="86.85" y="105.67" width="6.04" height="12.09"/>
  <rect x="104.98" y="105.67" width="6.04" height="6.04"/>
  <polygon points="111.02 93.59 111.02 99.63 98.93 99.63 98.93 87.55 104.98 87.55 104.98 93.59 111.02 93.59"/>
  <polygon points="92.89 51.3 92.89 63.38 86.85 63.38 86.85 81.51 92.89 81.51 92.89 87.55 50.6 87.55 50.6 81.51 74.77 81.51 74.77 63.38 56.64 63.38 56.64 51.3 92.89 51.3"/>
  <polygon points="44.56 87.55 44.56 99.63 32.48 99.63 32.48 93.59 38.52 93.59 38.52 87.55 44.56 87.55"/>
  <g>
    <rect class="cls-2" x="44.56" y="75.47" width="6.04" height="6.04"/>
    <rect class="cls-2" x="32.48" y="69.43" width="12.08" height="6.04"/>
    <rect class="cls-2" x="104.98" y="99.63" width="6.04" height="6.04"/>
    <rect class="cls-2" x="104.98" y="75.47" width="6.04" height="6.04"/>
    <rect class="cls-2" x="98.93" y="69.43" width="6.05" height="6.04"/>
    <rect class="cls-2" x="26.44" y="75.47" width="6.04" height="6.04"/>
    <rect class="cls-2" x="50.6" y="99.63" width="42.29" height="6.04"/>
    <rect class="cls-2" x="32.48" y="117.76" width="6.04" height="6.04"/>
    <rect class="cls-2" x="38.52" y="99.63" width="6.04" height="18.13"/>
    <rect class="cls-2" x="8.31" y="117.76" width="6.05" height="6.04"/>
    <rect class="cls-2" x="2.27" y="99.63" width="6.04" height="18.13"/>
    <rect class="cls-2" x="14.36" y="123.8" width="18.12" height="6.04"/>
    <rect class="cls-2" x="32.48" y="93.59" width="6.04" height="6.04"/>
    <rect class="cls-2" x="8.31" y="93.59" width="6.05" height="6.04"/>
    <rect class="cls-2" x="14.36" y="87.55" width="18.12" height="6.04"/>
  </g>
  <rect class="cls-1" x="68.73" y="105.67" width="18.12" height="12.09"/>
  <rect class="cls-1" x="92.89" y="105.67" width="6.04" height="12.09"/>
  <rect class="cls-1" x="44.56" y="105.67" width="18.13" height="12.09"/>
  <polygon class="cls-1" points="98.93 33.18 98.93 51.3 56.64 51.3 56.64 63.38 74.77 63.38 74.77 81.51 50.6 81.51 50.6 75.47 44.56 75.47 44.56 33.18 50.6 33.18 50.6 27.14 92.89 27.14 92.89 33.18 98.93 33.18"/>
  <polygon class="cls-1" points="111.02 81.51 111.02 87.55 92.89 87.55 92.89 81.51 86.85 81.51 86.85 63.38 98.93 63.38 98.93 75.47 104.98 75.47 104.98 81.51 111.02 81.51"/>
  <polygon class="cls-1" points="98.93 87.55 98.93 99.63 44.56 99.63 44.56 87.55 26.44 87.55 26.44 81.51 32.48 81.51 32.48 75.47 44.56 75.47 44.56 81.51 50.6 81.51 50.6 87.55 98.93 87.55"/>
  <polygon class="cls-1" points="38.52 99.63 38.52 117.76 32.48 117.76 32.48 123.8 14.36 123.8 14.36 117.76 8.31 117.76 8.31 99.63 14.36 99.63 14.36 93.59 32.48 93.59 32.48 99.63 38.52 99.63"/>
</svg>