<?xml version="1.0" encoding="UTF-8"?>
<svg id="Layer_1" data-name="Layer 1" xmlns="http://www.w3.org/2000/svg" viewBox="0 0 161.22 144">
  <defs>
    <style>
      .cls-1 {
        fill: #9bbc0f;
      }

      .cls-2 {
        fill: #8bac0f;
      }

      .cls-3 {
        fill: #306230;
      }

      .cls-4 {
        fill: #1a4d1a;
      }
    </style>
  </defs>
  <rect class="cls-1" x="131.92" y="111.28" width="12.08" height="6.04"/>
  <rect class="cls-1" x="144" y="117.32" width="12.08" height="6.04"/>
  <rect class="cls-1" x="119.84" y="105.23" width="12.08" height="6.05"/>
  <polygon class="cls-4" points="125.88 99.19 125.88 105.23 119.84 105.23 119.84 111.28 113.8 111.28 113.8 99.19 125.88 99.19"/>
  <polygon class="cls-1" points="53.38 20.66 53.38 26.7 47.34 26.7 47.34 32.74 35.26 32.74 35.26 26.7 29.22 26.7 29.22 14.61 35.26 14.61 35.26 20.66 53.38 20.66"/>
  <polygon class="cls-1" points="95.68 20.66 95.68 26.7 101.72 26.7 101.72 32.74 113.8 32.74 113.8 26.7 119.84 26.7 119.84 14.61 113.8 14.61 113.8 20.66 95.68 20.66"/>
  <rect x="59.42" y="111.28" width="6.05" height="12.08"/>
  <rect x="83.59" y="111.28" width="6.04" height="12.08"/>
  <rect x="65.47" y="99.19" width="6.04" height="12.09"/>
  <rect x="89.63" y="99.19" width="6.04" height="12.09"/>
  <rect class="cls-3" x="71.51" y="99.19" width="18.12" height="12.09"/>
  <rect class="cls-3" x="95.67" y="99.19" width="6.04" height="12.09"/>
  <rect class="cls-3" x="47.34" y="99.19" width="18.13" height="12.09"/>
  <polygon class="cls-3" points="101.71 26.7 101.71 44.82 59.42 44.82 59.42 56.9 77.55 56.9 77.55 75.03 53.38 75.03 53.38 68.99 47.34 68.99 47.34 26.7 53.38 26.7 53.38 20.66 95.67 20.66 95.67 26.7 101.71 26.7"/>
  <rect x="107.76" y="99.19" width="6.04" height="6.04"/>
  <polygon class="cls-3" points="113.8 75.03 113.8 81.07 95.67 81.07 95.67 75.03 89.63 75.03 89.63 56.9 101.71 56.9 101.71 68.99 107.76 68.99 107.76 75.03 113.8 75.03"/>
  <polygon points="113.8 87.11 113.8 93.15 101.71 93.15 101.71 81.07 107.76 81.07 107.76 87.11 113.8 87.11"/>
  <polygon points="95.67 44.82 95.67 56.9 89.63 56.9 89.63 75.03 95.67 75.03 95.67 81.07 53.38 81.07 53.38 75.03 77.55 75.03 77.55 56.9 59.42 56.9 59.42 44.82 95.67 44.82"/>
  <polygon class="cls-3" points="101.71 81.07 101.71 93.15 47.34 93.15 47.34 81.07 29.22 81.07 29.22 75.03 35.26 75.03 35.26 68.99 47.34 68.99 47.34 75.03 53.38 75.03 53.38 81.07 101.71 81.07"/>
  <polygon points="47.34 81.07 47.34 93.15 35.26 93.15 35.26 87.11 41.3 87.11 41.3 81.07 47.34 81.07"/>
  <g>
    <rect class="cls-2" x="47.34" y="68.99" width="6.04" height="6.04"/>
    <rect class="cls-2" x="35.26" y="62.95" width="12.08" height="6.04"/>
    <rect class="cls-2" x="107.76" y="93.15" width="6.04" height="6.04"/>
    <rect class="cls-2" x="107.76" y="68.99" width="6.04" height="6.04"/>
    <rect class="cls-2" x="101.71" y="62.95" width="6.05" height="6.04"/>
    <rect class="cls-2" x="29.22" y="68.99" width="6.04" height="6.04"/>
    <rect class="cls-2" x="53.38" y="93.15" width="42.29" height="6.04"/>
    <rect class="cls-2" x="35.26" y="111.27" width="6.04" height="6.04"/>
    <rect class="cls-2" x="41.3" y="93.14" width="6.04" height="18.13"/>
    <rect class="cls-2" x="11.09" y="111.27" width="6.05" height="6.04"/>
    <rect class="cls-2" x="5.05" y="93.14" width="6.04" height="18.13"/>
    <rect class="cls-2" x="17.14" y="117.31" width="18.12" height="6.04"/>
    <rect class="cls-2" x="35.26" y="87.1" width="6.04" height="6.04"/>
    <rect class="cls-2" x="11.09" y="87.1" width="6.05" height="6.04"/>
    <rect class="cls-2" x="17.14" y="81.06" width="18.12" height="6.04"/>
  </g>
  <polygon class="cls-4" points="41.3 93.14 41.3 111.27 35.26 111.27 35.26 117.31 17.14 117.31 17.14 111.27 11.09 111.27 11.09 93.14 17.14 93.14 17.14 87.1 35.26 87.1 35.26 93.14 41.3 93.14"/>
</svg>