<?xml version="1.0" encoding="UTF-8"?>
<svg id="Layer_1" data-name="Layer 1" xmlns="http://www.w3.org/2000/svg" viewBox="0 0 161.22 144">
  <defs>
    <style>
      .cls-1 {
        fill: #9bbc0f;
      }

      .cls-2 {
        fill: #1a4d1a;
      }

      .cls-3 {
        fill: #8bac0f;
      }
    </style>
  </defs>
  <rect class="cls-1" x="131.92" y="113.44" width="12.08" height="6.04"/>
  <rect class="cls-1" x="144" y="119.48" width="12.08" height="6.04"/>
  <rect class="cls-1" x="119.84" y="107.39" width="12.08" height="6.05"/>
  <polygon class="cls-3" points="53.39 22.81 53.39 28.85 47.35 28.85 47.35 34.89 35.27 34.89 35.27 28.85 29.23 28.85 29.23 16.76 35.27 16.76 35.27 22.81 53.39 22.81"/>
  <polygon class="cls-3" points="95.69 22.81 95.69 28.85 101.73 28.85 101.73 34.89 113.81 34.89 113.81 28.85 119.85 28.85 119.85 16.76 113.81 16.76 113.81 22.81 95.69 22.81"/>
  <rect x="59.43" y="113.43" width="6.05" height="12.08"/>
  <rect x="83.6" y="113.43" width="6.04" height="12.08"/>
  <rect x="65.48" y="101.34" width="6.04" height="12.09"/>
  <rect x="89.64" y="101.34" width="6.04" height="12.09"/>
  <rect x="107.77" y="101.34" width="6.04" height="6.04"/>
  <polygon points="113.81 89.26 113.81 95.3 101.72 95.3 101.72 83.22 107.77 83.22 107.77 89.26 113.81 89.26"/>
  <polygon points="95.68 46.97 95.68 59.05 89.64 59.05 89.64 77.18 95.68 77.18 95.68 83.22 53.39 83.22 53.39 77.18 77.56 77.18 77.56 59.05 59.43 59.05 59.43 46.97 95.68 46.97"/>
  <polygon points="47.35 83.22 47.35 95.3 35.27 95.3 35.27 89.26 41.31 89.26 41.31 83.22 47.35 83.22"/>
  <g>
    <rect class="cls-3" x="47.35" y="71.14" width="6.04" height="6.04"/>
    <rect class="cls-3" x="35.27" y="65.1" width="12.08" height="6.04"/>
    <rect class="cls-3" x="107.77" y="95.3" width="6.04" height="6.04"/>
    <rect class="cls-3" x="107.77" y="71.14" width="6.04" height="6.04"/>
    <rect class="cls-3" x="101.72" y="65.1" width="6.05" height="6.04"/>
    <rect class="cls-3" x="29.23" y="71.14" width="6.04" height="6.04"/>
    <rect class="cls-3" x="53.39" y="95.3" width="42.29" height="6.04"/>
    <rect class="cls-3" x="35.27" y="113.43" width="6.04" height="6.04"/>
    <rect class="cls-3" x="41.31" y="95.3" width="6.04" height="18.13"/>
    <rect class="cls-3" x="11.1" y="113.43" width="6.05" height="6.04"/>
    <rect class="cls-3" x="5.06" y="95.3" width="6.04" height="18.13"/>
    <rect class="cls-3" x="17.15" y="119.47" width="18.12" height="6.04"/>
    <rect class="cls-3" x="35.27" y="89.26" width="6.04" height="6.04"/>
    <rect class="cls-3" x="11.1" y="89.26" width="6.05" height="6.04"/>
    <rect class="cls-3" x="17.15" y="83.22" width="18.12" height="6.04"/>
  </g>
  <g>
    <polygon class="cls-2" points="125.88 101.35 125.88 107.39 119.84 107.39 119.84 113.44 113.8 113.44 113.8 101.35 125.88 101.35"/>
    <rect class="cls-2" x="71.52" y="101.34" width="18.12" height="12.09"/>
    <rect class="cls-2" x="95.68" y="101.34" width="6.04" height="12.09"/>
    <rect class="cls-2" x="47.35" y="101.34" width="18.13" height="12.09"/>
    <polygon class="cls-2" points="101.72 28.85 101.72 46.97 59.43 46.97 59.43 59.05 77.56 59.05 77.56 77.18 53.39 77.18 53.39 71.14 47.35 71.14 47.35 28.85 53.39 28.85 53.39 22.81 95.68 22.81 95.68 28.85 101.72 28.85"/>
    <polygon class="cls-2" points="113.81 77.18 113.81 83.22 95.68 83.22 95.68 77.18 89.64 77.18 89.64 59.05 101.72 59.05 101.72 71.14 107.77 71.14 107.77 77.18 113.81 77.18"/>
    <polygon class="cls-2" points="101.72 83.22 101.72 95.3 47.35 95.3 47.35 83.22 29.23 83.22 29.23 77.18 35.27 77.18 35.27 71.14 47.35 71.14 47.35 77.18 53.39 77.18 53.39 83.22 101.72 83.22"/>
    <polygon class="cls-2" points="41.31 95.3 41.31 113.43 35.27 113.43 35.27 119.47 17.15 119.47 17.15 113.43 11.1 113.43 11.1 95.3 17.15 95.3 17.15 89.26 35.27 89.26 35.27 95.3 41.31 95.3"/>
  </g>
</svg>