<?xml version="1.0" encoding="UTF-8"?>
<svg id="Layer_1" data-name="Layer 1" xmlns="http://www.w3.org/2000/svg" viewBox="0 0 647.28 144">
  <defs>
    <style>
      .cls-1 {
        fill: aqua;
      }
    </style>
  </defs>
  <polygon class="cls-1" points="161.08 54.45 161.08 63.91 142.03 63.91 142.03 68.63 156.32 68.63 156.32 78.07 142.03 78.07 142.03 92.25 132.49 92.25 132.49 54.45 161.08 54.45"/>
  <polygon class="cls-1" points="394.95 92.25 394.95 82.79 375.9 82.79 375.9 54.45 366.36 54.45 366.36 92.25 394.95 92.25"/>
  <polygon class="cls-1" points="399.95 54.45 399.95 92.25 428.54 92.25 428.54 82.79 409.49 82.79 409.49 78.07 423.78 78.07 423.78 68.63 409.49 68.63 409.49 63.91 428.54 63.91 428.54 54.45 399.95 54.45"/>
  <polygon class="cls-1" points="351.83 68.63 351.83 63.9 337.53 63.9 337.53 82.8 351.83 82.8 351.83 78.07 361.36 78.07 361.36 82.8 356.6 82.8 356.6 87.52 351.83 87.52 351.83 92.25 337.53 92.25 337.53 87.52 332.77 87.52 332.77 82.8 328 82.8 328 63.9 332.77 63.9 332.77 59.17 337.53 59.17 337.53 54.45 351.83 54.45 351.83 59.17 356.6 59.17 356.6 63.9 361.36 63.9 361.36 68.63 351.83 68.63"/>
  <path class="cls-1" d="M204.2,82.8v-9.46h-4.77v-9.45h-4.76v-9.45h-14.3v9.45h-4.77v9.45h-4.77v9.46h-4.76v9.45h14.3v-4.73h14.3v4.73h14.3v-9.45h-4.77ZM189.91,78.07h-4.77v-9.45h4.77v9.45Z"/>
  <path class="cls-1" d="M318.24,82.8v-9.46h-4.77v-9.45h-4.76v-9.45h-14.3v9.45h-4.77v9.45h-4.77v9.46h-4.76v9.45h14.3v-4.73h14.3v4.73h14.3v-9.45h-4.77ZM303.94,78.07h-4.77v-9.45h4.77v9.45Z"/>
  <path class="cls-1" d="M471.66,82.8v-9.46h-4.77v-9.45h-4.76v-9.45h-14.3v9.45h-4.77v9.45h-4.77v9.46h-4.76v9.45h14.3v-4.73h14.3v4.73h14.3v-9.45h-4.77ZM457.37,78.07h-4.77v-9.45h4.77v9.45Z"/>
  <polygon class="cls-1" points="514.79 54.45 514.79 92.25 505.26 92.25 505.26 87.52 500.49 87.52 500.49 82.79 495.72 82.79 495.72 78.07 490.96 78.07 490.96 92.25 481.43 92.25 481.43 54.45 490.96 54.45 490.96 59.17 495.72 59.17 495.72 63.9 500.49 63.9 500.49 68.63 505.26 68.63 505.26 54.45 514.79 54.45"/>
  <polygon class="cls-1" points="247.33 54.45 247.33 92.25 237.8 92.25 237.8 87.52 233.03 87.52 233.03 82.79 228.26 82.79 228.26 78.07 223.5 78.07 223.5 92.25 213.97 92.25 213.97 54.45 223.5 54.45 223.5 59.17 228.26 59.17 228.26 63.9 233.03 63.9 233.03 68.63 237.8 68.63 237.8 54.45 247.33 54.45"/>
</svg>