<?xml version="1.0" encoding="UTF-8"?>
<svg id="Layer_1" data-name="Layer 1" xmlns="http://www.w3.org/2000/svg" viewBox="0 0 647.28 144">
  <defs>
    <style>
      .cls-1 {
        fill: aqua;
      }

      .cls-2 {
        fill: #ff68ba;
      }
    </style>
  </defs>
  <path class="cls-2" d="M271.65,64.15l-.16,34.97c-1.89,3.02-3.62,7.26-5.51,10.28-1.91-3.02-3.53-6.7-5.44-9.72,0-12.06-.29-23.47-.29-35.53h11.4Z"/>
  <path class="cls-2" d="M269.63,43.63l-.1,14.56c-1.21,1.26-2.31,3.02-3.52,4.28-1.22-1.26-2.26-2.79-3.48-4.05,0-5.02-.18-9.77-.18-14.8h7.28Z"/>
  <rect class="cls-1" x="265.37" y="64.15" width="1.21" height="34.97"/>
  <rect class="cls-1" x="254.58" y="55.08" width="22.8" height="9.08"/>
  <polygon class="cls-1" points="271.65 64.15 271.65 100.33 271.04 100.33 271.04 101.54 270.44 101.54 270.44 102.75 269.83 102.75 269.83 103.96 269.23 103.96 269.23 105.17 268.62 105.17 268.62 106.38 268.02 106.38 268.02 107.59 267.41 107.59 267.41 108.81 266.81 108.81 266.81 110.02 266.2 110.02 266.2 111.23 265.6 111.23 265.6 110.02 264.99 110.02 264.99 108.81 264.39 108.81 264.39 107.59 263.78 107.59 263.78 106.38 263.18 106.38 263.18 105.17 262.57 105.17 262.57 103.96 261.97 103.96 261.97 102.75 261.36 102.75 261.36 101.54 260.75 101.54 260.75 100.33 260.15 100.33 260.15 64.16 260.75 64.16 260.75 64.15 261.36 64.15 261.36 100.33 261.97 100.33 261.97 101.54 262.57 101.54 262.57 102.75 263.18 102.75 263.18 103.96 263.78 103.96 263.78 105.17 264.39 105.17 264.39 106.38 264.99 106.38 264.99 107.59 265.6 107.59 265.6 108.81 266.2 108.81 266.2 107.59 266.81 107.59 266.81 106.38 267.41 106.38 267.41 105.17 268.02 105.17 268.02 103.96 268.62 103.96 268.62 102.75 269.23 102.75 269.23 101.54 269.83 101.54 269.83 100.33 270.44 100.33 270.44 64.15 271.65 64.15"/>
  <rect class="cls-1" x="258.77" y="38.29" width="14.39" height="5.34"/>
  <rect class="cls-1" x="269.32" y="43.63" width=".61" height="11.45"/>
  <rect class="cls-1" x="262.04" y="43.63" width=".61" height="11.45"/>
</svg>