<?xml version="1.0" encoding="UTF-8"?>
<svg id="Layer_1" data-name="Layer 1" xmlns="http://www.w3.org/2000/svg" viewBox="0 0 647.28 144">
  <polygon points="196.34 39.43 196.34 117.38 177.38 117.38 177.38 116.31 176.32 116.31 176.32 114.17 175.24 114.17 175.24 112.04 174.18 112.04 174.18 109.9 173.11 109.9 173.11 107.76 172.04 107.76 172.04 105.63 170.97 105.63 170.97 103.49 169.91 103.49 169.91 101.35 168.83 101.35 168.83 99.22 167.77 99.22 167.77 97.08 166.7 97.08 166.7 94.94 165.63 94.94 165.63 92.81 164.56 92.81 164.56 90.67 164.43 90.67 164.43 90.76 163.37 90.76 163.37 88.62 162.3 88.62 162.3 86.48 161.23 86.48 161.23 84.35 160.16 84.35 160.16 82.21 159.1 82.21 159.1 80.07 158.02 80.07 158.02 77.94 156.96 77.94 156.96 75.8 155.89 75.8 155.89 117.38 136.93 117.38 136.93 39.43 155.89 39.43 155.89 40.52 156.96 40.52 156.96 42.66 158.02 42.66 158.02 44.79 159.1 44.79 159.1 46.94 160.16 46.94 160.16 49.08 161.23 49.08 161.23 51.21 162.3 51.21 162.3 53.35 163.37 53.35 163.37 55.49 164.43 55.49 164.43 57.62 165.51 57.62 165.51 59.76 166.57 59.76 166.57 61.9 167.64 61.9 167.64 64.03 168.71 64.03 168.71 66.08 169.91 66.08 169.91 68.22 170.97 68.22 170.97 70.36 172.04 70.36 172.04 72.49 173.11 72.49 173.11 74.63 174.18 74.63 174.18 76.77 175.24 76.77 175.24 78.9 176.32 78.9 176.32 81.04 177.38 81.04 177.38 39.43 196.34 39.43"/>
  <polygon points="637.79 39.43 637.79 117.38 618.83 117.38 618.83 116.31 617.77 116.31 617.77 114.17 616.69 114.17 616.69 112.04 615.63 112.04 615.63 109.9 614.56 109.9 614.56 107.76 613.5 107.76 613.5 105.63 612.42 105.63 612.42 103.49 611.36 103.49 611.36 101.35 610.28 101.35 610.28 99.22 609.22 99.22 609.22 97.08 608.15 97.08 608.15 94.94 607.09 94.94 607.09 92.81 606.01 92.81 606.01 90.67 605.88 90.67 605.88 90.76 604.82 90.76 604.82 88.62 603.75 88.62 603.75 86.48 602.69 86.48 602.69 84.35 601.61 84.35 601.61 82.21 600.55 82.21 600.55 80.07 599.48 80.07 599.48 77.94 598.41 77.94 598.41 75.8 597.34 75.8 597.34 117.38 578.39 117.38 578.39 39.43 597.34 39.43 597.34 40.52 598.41 40.52 598.41 42.66 599.48 42.66 599.48 44.79 600.55 44.79 600.55 46.94 601.61 46.94 601.61 49.08 602.69 49.08 602.69 51.21 603.75 51.21 603.75 53.35 604.82 53.35 604.82 55.49 605.88 55.49 605.88 57.62 606.96 57.62 606.96 59.76 608.02 59.76 608.02 61.9 609.09 61.9 609.09 64.03 610.16 64.03 610.16 66.08 611.36 66.08 611.36 68.22 612.42 68.22 612.42 70.36 613.5 70.36 613.5 72.49 614.56 72.49 614.56 74.63 615.63 74.63 615.63 76.77 616.69 76.77 616.69 78.9 617.77 78.9 617.77 81.04 618.83 81.04 618.83 39.43 637.79 39.43"/>
  <polygon points="40.11 58.65 40.11 71.39 61.29 71.39 61.29 87.42 40.11 87.42 40.11 117.38 21.04 117.38 21.04 39.43 63.18 39.43 63.18 58.65 40.11 58.65"/>
  <polygon points="471.92 58.68 471.92 71.41 493.1 71.41 493.1 87.44 471.92 87.44 471.92 98.14 494.99 98.14 494.99 117.38 452.86 117.38 452.86 39.45 494.99 39.45 494.99 58.68 471.92 58.68"/>
  <polygon points="446.36 98.14 446.36 117.38 404.23 117.38 404.23 39.43 423.3 39.43 423.3 98.14 446.36 98.14"/>
  <path d="M129.52,114.18v-3.21h-1.07v-3.2h-1.06v-3.21h-1.07v-3.2h-1.06v-3.21h-1.07v-3.2h-1.07v-3.21h-1.06v-3.2h-1.07v-3.21h-1.06v-3.21h-1.07v-3.2h-1.06v-3.21h-1.07v-3.2h-1.06v-3.21h-1.07v-3.2h-1.06v-3.21h-1.07v-3.11h-1.06v-3.21h-1.07v-3.2h-1.06v-3.21h-1.07v-3.2h-1.06v-3.21h-1.07v-3.2h-1.06v-1.07h-20.15v1.07h-1.06v3.2h-1.07v3.21h-1.06v3.2h-1.07v3.21h-1.06v3.2h-1.07v3.21h-1.06v3.11h-1.07v3.21h-1.06v3.2h-1.07v3.21h-1.06v3.2h-1.07v3.21h-1.06v3.2h-1.07v3.21h-1.07v3.21h-1.06v3.2h-1.07v3.21h-1.06v3.2h-1.07v3.21h-1.06v3.2h-1.07v3.21h-1.06v3.2h-1.07v3.21h-1.06v3.2h19.23v-3.2h1.07v-3.21h1.06v-3.2h28.7v3.2h1.06v3.21h1.07v3.2h19.23v-3.2h-1.06ZM101.32,90.68h-11.75v-2.14h1.06v-3.21h1.07v-3.21h1.06v-3.2h1.07v-3.21h1.06v-3.2h1.07v3.2h1.06v3.21h1.07v3.2h1.06v3.21h1.07v3.21h1.06v2.14Z"/>
  <path d="M318.28,114.18v-3.21h-1.07v-3.2h-1.06v-3.21h-1.07v-3.2h-1.06v-3.21h-1.07v-3.2h-1.07v-3.21h-1.06v-3.2h-1.07v-3.21h-1.06v-3.21h-1.07v-3.2h-1.06v-3.21h-1.07v-3.2h-1.06v-3.21h-1.07v-3.2h-1.06v-3.21h-1.07v-3.11h-1.06v-3.21h-1.07v-3.2h-1.06v-3.21h-1.07v-3.2h-1.06v-3.21h-1.07v-3.2h-1.06v-1.07h-20.15v1.07h-1.06v3.2h-1.07v3.21h-1.06v3.2h-1.07v3.21h-1.06v3.2h-1.07v3.21h-1.06v3.11h-1.07v3.21h-1.06v3.2h-1.07v3.21h-1.06v3.2h-1.07v3.21h-1.06v3.2h-1.07v3.21h-1.07v3.21h-1.06v3.2h-1.07v3.21h-1.06v3.2h-1.07v3.21h-1.06v3.2h-1.07v3.21h-1.06v3.2h-1.07v3.21h-1.06v3.2h19.23v-3.2h1.07v-3.21h1.06v-3.2h28.7v3.2h1.06v3.21h1.07v3.2h19.23v-3.2h-1.06ZM290.08,90.68h-11.75v-2.14h1.06v-3.21h1.07v-3.21h1.06v-3.2h1.07v-3.21h1.06v-3.2h1.07v3.2h1.06v3.21h1.07v3.2h1.06v3.21h1.07v3.21h1.06v2.14Z"/>
  <path d="M571.34,114.18v-3.21h-1.07v-3.2h-1.06v-3.21h-1.07v-3.2h-1.06v-3.21h-1.07v-3.2h-1.07v-3.21h-1.06v-3.2h-1.07v-3.21h-1.06v-3.21h-1.07v-3.2h-1.06v-3.21h-1.07v-3.2h-1.06v-3.21h-1.07v-3.2h-1.06v-3.21h-1.07v-3.11h-1.06v-3.21h-1.07v-3.2h-1.06v-3.21h-1.07v-3.2h-1.06v-3.21h-1.07v-3.2h-1.06v-1.07h-20.15v1.07h-1.06v3.2h-1.07v3.21h-1.06v3.2h-1.07v3.21h-1.06v3.2h-1.07v3.21h-1.06v3.11h-1.07v3.21h-1.06v3.2h-1.07v3.21h-1.06v3.2h-1.07v3.21h-1.06v3.2h-1.07v3.21h-1.07v3.21h-1.06v3.2h-1.07v3.21h-1.06v3.2h-1.07v3.21h-1.06v3.2h-1.07v3.21h-1.06v3.2h-1.07v3.21h-1.06v3.2h19.23v-3.2h1.07v-3.21h1.06v-3.2h28.7v3.2h1.06v3.21h1.07v3.2h19.23v-3.2h-1.06ZM543.14,90.68h-11.75v-2.14h1.06v-3.21h1.07v-3.21h1.06v-3.2h1.07v-3.21h1.06v-3.2h1.07v3.2h1.06v3.21h1.07v3.2h1.06v3.21h1.07v3.21h1.06v2.14Z"/>
  <polygon points="377.06 74.64 377.06 72.5 375.98 72.5 375.98 69.31 374.89 69.31 374.89 67.17 373.82 67.17 373.82 65.03 372.76 65.03 372.76 63.96 371.68 63.96 371.68 62.89 370.62 62.89 370.62 61.82 369.55 61.82 369.55 60.75 367.41 60.75 367.41 59.69 366.35 59.69 366.35 58.61 364.21 58.61 364.21 57.55 359.93 57.55 359.93 56.47 354.59 56.47 353.52 56.48 353.52 57.55 349.24 57.55 349.24 58.61 347.11 58.61 347.11 59.69 346.04 59.69 346.04 60.75 343.91 60.75 343.91 61.82 342.83 61.82 342.83 62.89 341.77 62.89 341.77 63.96 340.7 63.96 340.7 65.02 339.63 65.02 339.63 67.16 338.56 67.16 338.56 69.29 337.48 69.29 337.48 72.5 336.4 72.5 336.38 72.52 336.38 82.11 337.47 82.11 337.47 85.32 338.55 85.32 338.55 87.46 339.62 87.46 339.62 89.6 340.69 89.6 340.69 90.66 341.76 90.66 341.76 91.73 342.82 91.73 342.82 92.8 343.9 92.8 343.9 93.87 346.03 93.87 346.03 94.93 347.1 94.93 347.1 96.01 349.23 96.01 349.23 97.07 353.52 97.07 353.52 98.15 359.93 98.15 359.93 97.07 364.2 97.07 364.2 96 366.34 96 366.34 94.93 367.4 94.93 367.4 93.86 369.53 93.86 369.53 92.8 370.61 92.8 370.61 91.72 371.67 91.72 371.67 90.66 372.74 90.66 372.74 89.59 373.81 89.59 373.81 87.45 374.88 87.45 374.88 85.31 375.97 85.31 375.97 82.11 377.05 82.11 377.05 79.98 397.33 79.98 397.33 82.11 396.35 82.11 396.35 87.46 395.28 87.46 395.28 90.66 394.17 90.66 394.17 93.87 393.11 93.87 393.11 96.01 392.04 96.01 392.04 98.14 390.97 98.14 390.97 100.28 389.9 100.28 389.9 102.42 388.84 102.42 388.84 103.48 387.76 103.48 387.76 104.55 386.7 104.55 386.7 105.62 385.63 105.62 385.63 106.69 384.56 106.69 384.56 107.75 383.49 107.75 383.49 108.83 382.43 108.83 382.43 109.89 380.29 109.89 380.29 110.96 378.16 110.96 378.16 112.02 377.08 112.02 377.08 113.1 374.95 113.1 374.95 114.16 372.81 114.16 372.81 115.23 370.67 115.23 370.67 116.31 365.52 116.31 365.52 117.38 348.43 117.38 348.43 116.31 343.28 116.31 343.28 115.23 341.14 115.23 341.14 114.16 339.01 114.16 339.01 113.1 336.87 113.1 336.87 112.02 335.8 112.02 335.8 110.96 333.66 110.96 333.66 109.89 331.52 109.89 331.52 108.83 330.46 108.83 330.46 107.75 329.39 107.75 329.39 106.69 328.32 106.69 328.32 105.62 327.25 105.62 327.25 104.55 326.18 104.55 326.18 103.48 325.11 103.48 325.11 102.42 324.04 102.42 324.04 100.28 322.98 100.28 322.98 98.14 321.9 98.14 321.9 96.01 320.84 96.01 320.84 93.87 319.77 93.87 319.77 90.66 318.66 90.66 318.66 87.46 317.6 87.46 317.6 82.11 316.51 82.11 316.51 72.49 317.58 72.49 317.58 67.16 318.64 67.16 318.64 63.96 319.76 63.96 319.76 60.75 320.82 60.75 320.82 58.61 321.89 58.61 321.89 56.48 322.96 56.48 322.96 54.34 324.03 54.34 324.03 52.2 325.09 52.2 325.09 51.14 326.17 51.14 326.17 50.07 327.23 50.07 327.23 49 328.3 49 328.3 47.93 329.37 47.93 329.37 46.87 330.44 46.87 330.44 45.79 331.5 45.79 331.5 44.72 333.64 44.72 333.64 43.66 335.78 43.66 335.78 42.58 336.85 42.58 336.85 41.52 338.99 41.52 338.99 40.45 341.12 40.45 341.12 39.38 343.26 39.38 343.26 38.31 348.41 38.31 348.41 37.24 365.51 37.24 365.51 38.31 370.65 38.31 370.65 39.38 372.79 39.38 372.79 40.45 374.92 40.45 374.92 41.52 377.06 41.52 377.06 42.58 378.13 42.58 378.13 43.66 380.27 43.66 380.27 44.72 382.41 44.72 382.41 45.79 383.47 45.79 383.47 46.87 384.54 46.87 384.54 47.93 385.61 47.93 385.61 49 386.68 49 386.68 50.07 387.74 50.07 387.74 51.14 388.82 51.14 388.82 52.2 389.88 52.2 389.88 54.34 390.95 54.34 390.95 56.48 392.02 56.48 392.02 58.61 393.09 58.61 393.09 60.75 394.15 60.75 394.15 63.96 395.27 63.96 395.27 67.16 396.33 67.16 396.33 72.5 397.33 72.5 397.33 74.64 377.06 74.64"/>
</svg>