<?xml version="1.0" encoding="UTF-8"?>
<svg id="Layer_1" data-name="Layer 1" xmlns="http://www.w3.org/2000/svg" viewBox="0 0 647.28 144">
  <polygon points="195.32 37.07 195.32 115.03 176.36 115.03 176.36 113.95 175.29 113.95 175.29 111.82 174.22 111.82 174.22 109.68 173.16 109.68 173.16 107.54 172.08 107.54 172.08 105.41 171.02 105.41 171.02 103.27 169.95 103.27 169.95 101.13 168.89 101.13 168.89 99 167.81 99 167.81 96.86 166.75 96.86 166.75 94.72 165.68 94.72 165.68 92.59 164.61 92.59 164.61 90.45 163.54 90.45 163.54 88.32 163.41 88.32 163.41 88.4 162.35 88.4 162.35 86.26 161.27 86.26 161.27 84.13 160.21 84.13 160.21 81.99 159.14 81.99 159.14 79.85 158.08 79.85 158.08 77.72 157 77.72 157 75.58 155.94 75.58 155.94 73.45 154.87 73.45 154.87 115.03 135.91 115.03 135.91 37.07 154.87 37.07 154.87 38.17 155.94 38.17 155.94 40.3 157 40.3 157 42.44 158.08 42.44 158.08 44.59 159.14 44.59 159.14 46.72 160.21 46.72 160.21 48.86 161.27 48.86 161.27 51 162.35 51 162.35 53.13 163.41 53.13 163.41 55.27 164.48 55.27 164.48 57.41 165.55 57.41 165.55 59.54 166.62 59.54 166.62 61.68 167.68 61.68 167.68 63.73 168.89 63.73 168.89 65.87 169.95 65.87 169.95 68 171.02 68 171.02 70.14 172.08 70.14 172.08 72.28 173.16 72.28 173.16 74.41 174.22 74.41 174.22 76.55 175.29 76.55 175.29 78.69 176.36 78.69 176.36 37.07 195.32 37.07"/>
  <polygon points="636.77 37.07 636.77 115.03 617.81 115.03 617.81 113.95 616.75 113.95 616.75 111.82 615.67 111.82 615.67 109.68 614.61 109.68 614.61 107.54 613.54 107.54 613.54 105.41 612.47 105.41 612.47 103.27 611.4 103.27 611.4 101.13 610.34 101.13 610.34 99 609.26 99 609.26 96.86 608.2 96.86 608.2 94.72 607.13 94.72 607.13 92.59 606.06 92.59 606.06 90.45 604.99 90.45 604.99 88.32 604.86 88.32 604.86 88.4 603.8 88.4 603.8 86.26 602.73 86.26 602.73 84.13 601.66 84.13 601.66 81.99 600.59 81.99 600.59 79.85 599.53 79.85 599.53 77.72 598.45 77.72 598.45 75.58 597.39 75.58 597.39 73.45 596.32 73.45 596.32 115.03 577.37 115.03 577.37 37.07 596.32 37.07 596.32 38.17 597.39 38.17 597.39 40.3 598.45 40.3 598.45 42.44 599.53 42.44 599.53 44.59 600.59 44.59 600.59 46.72 601.66 46.72 601.66 48.86 602.73 48.86 602.73 51 603.8 51 603.8 53.13 604.86 53.13 604.86 55.27 605.94 55.27 605.94 57.41 607 57.41 607 59.54 608.07 59.54 608.07 61.68 609.14 61.68 609.14 63.73 610.34 63.73 610.34 65.87 611.4 65.87 611.4 68 612.47 68 612.47 70.14 613.54 70.14 613.54 72.28 614.61 72.28 614.61 74.41 615.67 74.41 615.67 76.55 616.75 76.55 616.75 78.69 617.81 78.69 617.81 37.07 636.77 37.07"/>
  <polygon points="39.09 56.3 39.09 69.03 60.26 69.03 60.26 85.06 39.09 85.06 39.09 115.03 20.02 115.03 20.02 37.07 62.16 37.07 62.16 56.3 39.09 56.3"/>
  <polygon points="470.89 56.32 470.89 69.06 492.08 69.06 492.08 85.08 470.89 85.08 470.89 95.79 493.97 95.79 493.97 115.03 451.84 115.03 451.84 37.09 493.97 37.09 493.97 56.32 470.89 56.32"/>
  <polygon points="445.34 95.79 445.34 115.03 403.21 115.03 403.21 37.07 422.28 37.07 422.28 95.79 445.34 95.79"/>
  <g>
    <rect x="224.43" y="52.12" width="2.01" height="58.06"/>
    <rect x="206.51" y="37.05" width="37.85" height="15.07"/>
    <polygon points="234.85 52.12 234.85 112.19 233.84 112.19 233.84 114.2 232.84 114.2 232.84 116.21 231.83 116.21 231.83 118.22 230.83 118.22 230.83 120.23 229.82 120.23 229.82 122.24 228.82 122.24 228.82 124.25 227.81 124.25 227.81 126.26 226.81 126.26 226.81 128.27 225.8 128.27 225.8 130.28 224.8 130.28 224.8 128.27 223.79 128.27 223.79 126.26 222.79 126.26 222.79 124.25 221.78 124.25 221.78 122.24 220.78 122.24 220.78 120.23 219.77 120.23 219.77 118.22 218.77 118.22 218.77 116.21 217.76 116.21 217.76 114.2 216.75 114.2 216.75 112.19 215.75 112.19 215.75 52.13 216.75 52.13 216.75 52.12 217.76 52.12 217.76 112.19 218.77 112.19 218.77 114.2 219.77 114.2 219.77 116.21 220.78 116.21 220.78 118.22 221.78 118.22 221.78 120.23 222.79 120.23 222.79 122.24 223.79 122.24 223.79 124.25 224.8 124.25 224.8 126.26 225.8 126.26 225.8 124.25 226.81 124.25 226.81 122.24 227.81 122.24 227.81 120.23 228.82 120.23 228.82 118.22 229.82 118.22 229.82 116.21 230.83 116.21 230.83 114.2 231.83 114.2 231.83 112.19 232.84 112.19 232.84 52.12 234.85 52.12"/>
    <rect x="213.46" y="9.18" width="23.89" height="8.86"/>
    <rect x="230.99" y="18.04" width="1.01" height="19.01"/>
    <rect x="218.9" y="18.04" width="1.01" height="19.01"/>
  </g>
  <path d="M128.49,111.83v-3.21h-1.07v-3.2h-1.06v-3.21h-1.07v-3.2h-1.06v-3.21h-1.07v-3.2h-1.07v-3.21h-1.06v-3.2h-1.07v-3.21h-1.06v-3.21h-1.07v-3.2h-1.06v-3.21h-1.07v-3.2h-1.06v-3.21h-1.07v-3.2h-1.06v-3.21h-1.07v-3.11h-1.06v-3.21h-1.07v-3.2h-1.06v-3.21h-1.07v-3.2h-1.06v-3.21h-1.07v-3.2h-1.06v-1.07h-20.15v1.07h-1.06v3.2h-1.07v3.21h-1.06v3.2h-1.07v3.21h-1.06v3.2h-1.07v3.21h-1.06v3.11h-1.07v3.21h-1.06v3.2h-1.07v3.21h-1.06v3.2h-1.07v3.21h-1.06v3.2h-1.07v3.21h-1.07v3.21h-1.06v3.2h-1.07v3.21h-1.06v3.2h-1.07v3.21h-1.06v3.2h-1.07v3.21h-1.06v3.2h-1.07v3.21h-1.06v3.2h19.23v-3.2h1.07v-3.21h1.06v-3.2h28.7v3.2h1.06v3.21h1.07v3.2h19.23v-3.2h-1.06ZM100.29,88.33h-11.75v-2.14h1.06v-3.21h1.07v-3.21h1.06v-3.2h1.07v-3.21h1.06v-3.2h1.07v3.2h1.06v3.21h1.07v3.2h1.06v3.21h1.07v3.21h1.06v2.14Z"/>
  <path d="M317.26,111.83v-3.21h-1.07v-3.2h-1.06v-3.21h-1.07v-3.2h-1.06v-3.21h-1.07v-3.2h-1.07v-3.21h-1.06v-3.2h-1.07v-3.21h-1.06v-3.21h-1.07v-3.2h-1.06v-3.21h-1.07v-3.2h-1.06v-3.21h-1.07v-3.2h-1.06v-3.21h-1.07v-3.11h-1.06v-3.21h-1.07v-3.2h-1.06v-3.21h-1.07v-3.2h-1.06v-3.21h-1.07v-3.2h-1.06v-1.07h-20.15v1.07h-1.06v3.2h-1.07v3.21h-1.06v3.2h-1.07v3.21h-1.06v3.2h-1.07v3.21h-1.06v3.11h-1.07v3.21h-1.06v3.2h-1.07v3.21h-1.06v3.2h-1.07v3.21h-1.06v3.2h-1.07v3.21h-1.07v3.21h-1.06v3.2h-1.07v3.21h-1.06v3.2h-1.07v3.21h-1.06v3.2h-1.07v3.21h-1.06v3.2h-1.07v3.21h-1.06v3.2h19.23v-3.2h1.07v-3.21h1.06v-3.2h28.7v3.2h1.06v3.21h1.07v3.2h19.23v-3.2h-1.06ZM289.06,88.33h-11.75v-2.14h1.06v-3.21h1.07v-3.21h1.06v-3.2h1.07v-3.21h1.06v-3.2h1.07v3.2h1.06v3.21h1.07v3.2h1.06v3.21h1.07v3.21h1.06v2.14Z"/>
  <path d="M570.32,111.83v-3.21h-1.07v-3.2h-1.06v-3.21h-1.07v-3.2h-1.06v-3.21h-1.07v-3.2h-1.07v-3.21h-1.06v-3.2h-1.07v-3.21h-1.06v-3.21h-1.07v-3.2h-1.06v-3.21h-1.07v-3.2h-1.06v-3.21h-1.07v-3.2h-1.06v-3.21h-1.07v-3.11h-1.06v-3.21h-1.07v-3.2h-1.06v-3.21h-1.07v-3.2h-1.06v-3.21h-1.07v-3.2h-1.06v-1.07h-20.15v1.07h-1.06v3.2h-1.07v3.21h-1.06v3.2h-1.07v3.21h-1.06v3.2h-1.07v3.21h-1.06v3.11h-1.07v3.21h-1.06v3.2h-1.07v3.21h-1.06v3.2h-1.07v3.21h-1.06v3.2h-1.07v3.21h-1.07v3.21h-1.06v3.2h-1.07v3.21h-1.06v3.2h-1.07v3.21h-1.06v3.2h-1.07v3.21h-1.06v3.2h-1.07v3.21h-1.06v3.2h19.23v-3.2h1.07v-3.21h1.06v-3.2h28.7v3.2h1.06v3.21h1.07v3.2h19.23v-3.2h-1.06ZM542.12,88.33h-11.75v-2.14h1.06v-3.21h1.07v-3.21h1.06v-3.2h1.07v-3.21h1.06v-3.2h1.07v3.2h1.06v3.21h1.07v3.2h1.06v3.21h1.07v3.21h1.06v2.14Z"/>
  <polygon points="376.04 72.29 376.04 70.15 374.96 70.15 374.96 66.95 373.87 66.95 373.87 64.81 372.8 64.81 372.8 62.68 371.73 62.68 371.73 61.6 370.66 61.6 370.66 60.53 369.6 60.53 369.6 59.47 368.52 59.47 368.52 58.39 366.39 58.39 366.39 57.33 365.32 57.33 365.32 56.26 363.19 56.26 363.19 55.19 358.9 55.19 358.9 54.11 353.57 54.11 352.5 54.12 352.5 55.19 348.22 55.19 348.22 56.26 346.09 56.26 346.09 57.33 345.02 57.33 345.02 58.39 342.89 58.39 342.89 59.47 341.81 59.47 341.81 60.53 340.75 60.53 340.75 61.6 339.68 61.6 339.68 62.67 338.61 62.67 338.61 64.8 337.54 64.8 337.54 66.94 336.46 66.94 336.46 70.15 335.38 70.15 335.36 70.16 335.36 79.76 336.45 79.76 336.45 82.97 337.53 82.97 337.53 85.11 338.6 85.11 338.6 87.24 339.67 87.24 339.67 88.3 340.74 88.3 340.74 89.38 341.8 89.38 341.8 90.44 342.88 90.44 342.88 91.51 345.01 91.51 345.01 92.58 346.08 92.58 346.08 93.65 348.21 93.65 348.21 94.71 352.5 94.71 352.5 95.8 358.9 95.8 358.9 94.71 363.18 94.71 363.18 93.64 365.31 93.64 365.31 92.58 366.38 92.58 366.38 91.5 368.51 91.5 368.51 90.44 369.59 90.44 369.59 89.37 370.65 89.37 370.65 88.3 371.72 88.3 371.72 87.23 372.79 87.23 372.79 85.09 373.86 85.09 373.86 82.96 374.94 82.96 374.94 79.76 376.03 79.76 376.03 77.62 396.31 77.62 396.31 79.76 395.33 79.76 395.33 85.11 394.26 85.11 394.26 88.3 393.15 88.3 393.15 91.51 392.09 91.51 392.09 93.65 391.02 93.65 391.02 95.79 389.95 95.79 389.95 97.92 388.88 97.92 388.88 100.06 387.82 100.06 387.82 101.12 386.74 101.12 386.74 102.2 385.68 102.2 385.68 103.26 384.61 103.26 384.61 104.33 383.54 104.33 383.54 105.4 382.47 105.4 382.47 106.47 381.41 106.47 381.41 107.53 379.27 107.53 379.27 108.61 377.13 108.61 377.13 109.67 376.06 109.67 376.06 110.74 373.92 110.74 373.92 111.81 371.79 111.81 371.79 112.88 369.65 112.88 369.65 113.95 364.5 113.95 364.5 115.03 347.4 115.03 347.4 113.95 342.26 113.95 342.26 112.88 340.12 112.88 340.12 111.81 337.99 111.81 337.99 110.74 335.85 110.74 335.85 109.67 334.78 109.67 334.78 108.61 332.64 108.61 332.64 107.53 330.5 107.53 330.5 106.47 329.44 106.47 329.44 105.4 328.37 105.4 328.37 104.33 327.3 104.33 327.3 103.26 326.23 103.26 326.23 102.2 325.16 102.2 325.16 101.12 324.09 101.12 324.09 100.06 323.02 100.06 323.02 97.92 321.96 97.92 321.96 95.79 320.88 95.79 320.88 93.65 319.82 93.65 319.82 91.51 318.75 91.51 318.75 88.3 317.64 88.3 317.64 85.11 316.58 85.11 316.58 79.76 315.48 79.76 315.48 70.14 316.56 70.14 316.56 64.8 317.62 64.8 317.62 61.6 318.74 61.6 318.74 58.39 319.8 58.39 319.8 56.26 320.87 56.26 320.87 54.12 321.94 54.12 321.94 51.98 323.01 51.98 323.01 49.85 324.07 49.85 324.07 48.79 325.15 48.79 325.15 47.71 326.21 47.71 326.21 46.65 327.28 46.65 327.28 45.58 328.35 45.58 328.35 44.51 329.42 44.51 329.42 43.44 330.48 43.44 330.48 42.37 332.62 42.37 332.62 41.3 334.76 41.3 334.76 40.23 335.83 40.23 335.83 39.17 337.97 39.17 337.97 38.09 340.1 38.09 340.1 37.03 342.24 37.03 342.24 35.96 347.39 35.96 347.39 34.88 364.49 34.88 364.49 35.96 369.63 35.96 369.63 37.03 371.77 37.03 371.77 38.09 373.9 38.09 373.9 39.17 376.04 39.17 376.04 40.23 377.11 40.23 377.11 41.3 379.25 41.3 379.25 42.37 381.39 42.37 381.39 43.44 382.45 43.44 382.45 44.51 383.52 44.51 383.52 45.58 384.59 45.58 384.59 46.65 385.66 46.65 385.66 47.71 386.72 47.71 386.72 48.79 387.8 48.79 387.8 49.85 388.86 49.85 388.86 51.98 389.93 51.98 389.93 54.12 390.99 54.12 390.99 56.26 392.07 56.26 392.07 58.39 393.13 58.39 393.13 61.6 394.25 61.6 394.25 64.8 395.31 64.8 395.31 70.15 396.31 70.15 396.31 72.29 376.04 72.29"/>
</svg>