<?xml version="1.0" encoding="UTF-8"?>
<svg xmlns="http://www.w3.org/2000/svg" viewBox="0 0 647.28 144">
  <defs>
    <style>
      /* Inline vectors only; no external file references. */
      .logoWrap{
        transform-origin: 50% 50%;
        transform-box: fill-box;
        animation: logoLandFlashShake 2000ms steps(12) forwards;
      }

      .base{
        fill: #00FFFF;
        opacity: 1;
        animation: baseHide 2000ms steps(1) forwards;
      }

      .final{
        fill: #00FFFF;
        opacity: 0;
        animation: finalShow 2000ms steps(1) forwards;
      }

      /* Sword: cyan guard/hilt, magenta blade with cyan outline (match reference) */
      .swordPartCyan{
        fill: #00FFFF;
      }
      .swordPartBlade{
        fill: #FF00FF;
      }
      .swordWrap polygon.swordPartBlade,
      .final polygon.swordPartBlade{
        stroke: #00FFFF;
        stroke-width: 0.7;
        stroke-linejoin: miter;
      }

      .swordWrap{
        opacity: 1;
        animation: swordDropChoppy 2000ms steps(16) forwards, swordHide 2000ms steps(1) forwards;
      }

      /* Choppy retro fall: hard-stepped frames + tiny "bounce" */
      @keyframes swordDropChoppy{
        0%   { transform: translate(0px, -240px); }
        52%  { transform: translate(0px, -60px); }
        60%  { transform: translate(0px, 0px); }
        64%  { transform: translate(0px, 10px); }
        70%  { transform: translate(0px, 0px); }
        76%  { transform: translate(0px, 5px); }
        82%  { transform: translate(0px, 0px); }
        100% { transform: translate(0px, 0px); }
      }

      /* Swap from layered pieces to the final combined logo right at "impact" */
      @keyframes swordHide{
        0%, 61% { opacity: 1; }
        62%, 100% { opacity: 0; }
      }

      @keyframes baseHide{
        0%, 61% { opacity: 1; }
        62%, 100% { opacity: 0; }
      }

      @keyframes finalShow{
        0%, 61% { opacity: 0; }
        62%, 100% { opacity: 1; }
      }

      /* Whole-logo slight shake + short white flash on landing */
      @keyframes logoLandFlashShake{
        0%, 58%{
          transform: translate(0px, 0px);
          filter: none;
        }
        60%{
          transform: translate(-3px, 2px);
          filter: invert(1);
        }
        63%{
          transform: translate(3px, -2px);
          filter: none;
        }
        66%{
          transform: translate(-2px, -1px);
          filter: invert(1);
        }
        69%{
          transform: translate(2px, 1px);
          filter: none;
        }
        72%{
          transform: translate(-2px, 1px);
          filter: invert(1);
        }
        76%{
          transform: translate(2px, 0px);
          filter: none;
        }
        80%, 100%{
          transform: translate(0px, 0px);
          filter: none;
        }
      }
    </style>
  </defs>

  <g class="logoWrap">
    <!-- Base logo (no sword) -->
    <g class="base">
      <polygon points="196.34 39.43 196.34 117.38 177.38 117.38 177.38 116.31 176.32 116.31 176.32 114.17 175.24 114.17 175.24 112.04 174.18 112.04 174.18 109.9 173.11 109.9 173.11 107.76 172.04 107.76 172.04 105.63 170.97 105.63 170.97 103.49 169.91 103.49 169.91 101.35 168.83 101.35 168.83 99.22 167.77 99.22 167.77 97.08 166.7 97.08 166.7 94.94 165.63 94.94 165.63 92.81 164.56 92.81 164.56 90.67 164.43 90.67 164.43 90.76 163.37 90.76 163.37 88.62 162.3 88.62 162.3 86.48 161.23 86.48 161.23 84.35 160.16 84.35 160.16 82.21 159.1 82.21 159.1 80.07 158.02 80.07 158.02 77.94 156.96 77.94 156.96 75.8 155.89 75.8 155.89 117.38 136.93 117.38 136.93 39.43 155.89 39.43 155.89 40.52 156.96 40.52 156.96 42.66 158.02 42.66 158.02 44.79 159.1 44.79 159.1 46.94 160.16 46.94 160.16 49.08 161.23 49.08 161.23 51.21 162.3 51.21 162.3 53.35 163.37 53.35 163.37 55.49 164.43 55.49 164.43 57.62 165.51 57.62 165.51 59.76 166.57 59.76 166.57 61.9 167.64 61.9 167.64 64.03 168.71 64.03 168.71 66.08 169.91 66.08 169.91 68.22 170.97 68.22 170.97 70.36 172.04 70.36 172.04 72.49 173.11 72.49 173.11 74.63 174.18 74.63 174.18 76.77 175.24 76.77 175.24 78.9 176.32 78.9 176.32 81.04 177.38 81.04 177.38 39.43 196.34 39.43"/>
      <polygon points="637.79 39.43 637.79 117.38 618.83 117.38 618.83 116.31 617.77 116.31 617.77 114.17 616.69 114.17 616.69 112.04 615.63 112.04 615.63 109.9 614.56 109.9 614.56 107.76 613.5 107.76 613.5 105.63 612.42 105.63 612.42 103.49 611.36 103.49 611.36 101.35 610.28 101.35 610.28 99.22 609.22 99.22 609.22 97.08 608.15 97.08 608.15 94.94 607.09 94.94 607.09 92.81 606.01 92.81 606.01 90.67 605.88 90.67 605.88 90.76 604.82 90.76 604.82 88.62 603.75 88.62 603.75 86.48 602.69 86.48 602.69 84.35 601.61 84.35 601.61 82.21 600.55 82.21 600.55 80.07 599.48 80.07 599.48 77.94 598.41 77.94 598.41 75.8 597.34 75.8 597.34 117.38 578.39 117.38 578.39 39.43 597.34 39.43 597.34 40.52 598.41 40.52 598.41 42.66 599.48 42.66 599.48 44.79 600.55 44.79 600.55 46.94 601.61 46.94 601.61 49.08 602.69 49.08 602.69 51.21 603.75 51.21 603.75 53.35 604.82 53.35 604.82 55.49 605.88 55.49 605.88 57.62 606.96 57.62 606.96 59.76 608.02 59.76 608.02 61.9 609.09 61.9 609.09 64.03 610.16 64.03 610.16 66.08 611.36 66.08 611.36 68.22 612.42 68.22 612.42 70.36 613.5 70.36 613.5 72.49 614.56 72.49 614.56 74.63 615.63 74.63 615.63 76.77 616.69 76.77 616.69 78.9 617.77 78.9 617.77 81.04 618.83 81.04 618.83 39.43 637.79 39.43"/>
      <polygon points="40.11 58.65 40.11 71.39 61.29 71.39 61.29 87.42 40.11 87.42 40.11 117.38 21.04 117.38 21.04 39.43 63.18 39.43 63.18 58.65 40.11 58.65"/>
      <polygon points="471.92 58.68 471.92 71.41 493.1 71.41 493.1 87.44 471.92 87.44 471.92 98.14 494.99 98.14 494.99 117.38 452.86 117.38 452.86 39.45 494.99 39.45 494.99 58.68 471.92 58.68"/>
      <polygon points="446.36 98.14 446.36 117.38 404.23 117.38 404.23 39.43 423.3 39.43 423.3 98.14 446.36 98.14"/>
      <path d="M129.52,114.18v-3.21h-1.07v-3.2h-1.06v-3.21h-1.07v-3.2h-1.06v-3.21h-1.07v-3.2h-1.07v-3.21h-1.06v-3.2h-1.07v-3.21h-1.06v-3.21h-1.07v-3.2h-1.06v-3.21h-1.07v-3.2h-1.06v-3.21h-1.07v-3.2h-1.06v-3.21h-1.07v-3.11h-1.06v-3.21h-1.07v-3.2h-1.06v-3.21h-1.07v-3.2h-1.06v-3.21h-1.07v-3.2h-1.06v-1.07h-20.15v1.07h-1.06v3.2h-1.07v3.21h-1.06v3.2h-1.07v3.21h-1.06v3.2h-1.07v3.21h-1.06v3.11h-1.07v3.21h-1.06v3.2h-1.07v3.21h-1.06v3.2h-1.07v3.21h-1.06v3.2h-1.07v3.21h-1.07v3.21h-1.06v3.2h-1.07v3.21h-1.06v3.2h-1.07v3.21h-1.06v3.2h-1.07v3.21h-1.06v3.2h-1.07v3.21h-1.06v3.2h19.23v-3.2h1.07v-3.21h1.06v-3.2h28.7v3.2h1.06v3.21h1.07v3.2h19.23v-3.2h-1.06ZM101.32,90.68h-11.75v-2.14h1.06v-3.21h1.07v-3.21h1.06v-3.2h1.07v-3.21h1.06v-3.2h1.07v3.2h1.06v3.21h1.07v3.2h1.06v3.21h1.07v3.21h1.06v2.14Z"/>
      <path d="M318.28,114.18v-3.21h-1.07v-3.2h-1.06v-3.21h-1.07v-3.2h-1.06v-3.21h-1.07v-3.2h-1.07v-3.21h-1.06v-3.2h-1.07v-3.21h-1.06v-3.21h-1.07v-3.2h-1.06v-3.21h-1.07v-3.2h-1.06v-3.21h-1.07v-3.2h-1.06v-3.21h-1.07v-3.11h-1.06v-3.21h-1.07v-3.2h-1.06v-3.21h-1.07v-3.2h-1.06v-3.21h-1.07v-3.2h-1.06v-1.07h-20.15v1.07h-1.06v3.2h-1.07v3.21h-1.06v3.2h-1.07v3.21h-1.06v3.2h-1.07v3.21h-1.06v3.11h-1.07v3.21h-1.06v3.2h-1.07v3.21h-1.06v3.2h-1.07v3.21h-1.06v3.2h-1.07v3.21h-1.07v3.21h-1.06v3.2h-1.07v3.21h-1.06v3.2h-1.07v3.21h-1.06v3.2h-1.07v3.21h-1.06v3.2h-1.07v3.21h-1.06v3.2h19.23v-3.2h1.07v-3.21h1.06v-3.2h28.7v3.2h1.06v3.21h1.07v3.2h19.23v-3.2h-1.06ZM290.08,90.68h-11.75v-2.14h1.06v-3.21h1.07v-3.21h1.06v-3.2h1.07v-3.21h1.06v-3.2h1.07v3.2h1.06v3.21h1.07v3.2h1.06v3.21h1.07v3.21h1.06v2.14Z"/>
      <path d="M571.34,114.18v-3.21h-1.07v-3.2h-1.06v-3.21h-1.07v-3.2h-1.06v-3.21h-1.07v-3.2h-1.07v-3.21h-1.06v-3.2h-1.07v-3.21h-1.06v-3.21h-1.07v-3.2h-1.06v-3.21h-1.07v-3.2h-1.06v-3.21h-1.07v-3.2h-1.06v-3.21h-1.07v-3.11h-1.06v-3.21h-1.07v-3.2h-1.06v-3.21h-1.07v-3.2h-1.06v-3.21h-1.07v-3.2h-1.06v-1.07h-20.15v1.07h-1.06v3.2h-1.07v3.21h-1.06v3.2h-1.07v3.21h-1.06v3.2h-1.07v3.21h-1.06v3.11h-1.07v3.21h-1.06v3.2h-1.07v3.21h-1.06v3.2h-1.07v3.21h-1.06v3.2h-1.07v3.21h-1.07v3.21h-1.06v3.2h-1.07v3.21h-1.06v3.2h-1.07v3.21h-1.06v3.2h-1.07v3.21h-1.06v3.2h-1.07v3.21h-1.06v3.2h19.23v-3.2h1.07v-3.21h1.06v-3.2h28.7v3.2h1.06v3.21h1.07v3.2h19.23v-3.2h-1.06ZM543.14,90.68h-11.75v-2.14h1.06v-3.21h1.07v-3.21h1.06v-3.2h1.07v-3.21h1.06v-3.2h1.07v3.2h1.06v3.21h1.07v3.2h1.06v3.21h1.07v3.21h1.06v2.14Z"/>
      <polygon points="377.06 74.64 377.06 72.5 375.98 72.5 375.98 69.31 374.89 69.31 374.89 67.17 373.82 67.17 373.82 65.03 372.76 65.03 372.76 63.96 371.68 63.96 371.68 62.89 370.62 62.89 370.62 61.82 369.55 61.82 369.55 60.75 367.41 60.75 367.41 59.69 366.35 59.69 366.35 58.61 364.21 58.61 364.21 57.55 359.93 57.55 359.93 56.47 354.59 56.47 353.52 56.48 353.52 57.55 349.24 57.55 349.24 58.61 347.11 58.61 347.11 59.69 346.04 59.69 346.04 60.75 343.91 60.75 343.91 61.82 342.83 61.82 342.83 62.89 341.77 62.89 341.77 63.96 340.7 63.96 340.7 65.02 339.63 65.02 339.63 67.16 338.56 67.16 338.56 69.29 337.48 69.29 337.48 72.5 336.4 72.5 336.38 72.52 336.38 82.11 337.47 82.11 337.47 85.32 338.55 85.32 338.55 87.46 339.62 87.46 339.62 89.6 340.69 89.6 340.69 90.66 341.76 90.66 341.76 91.73 342.82 91.73 342.82 92.8 343.9 92.8 343.9 93.87 346.03 93.87 346.03 94.93 347.1 94.93 347.1 96.01 349.23 96.01 349.23 97.07 353.52 97.07 353.52 98.15 359.93 98.15 359.93 97.07 364.2 97.07 364.2 96 366.34 96 366.34 94.93 367.4 94.93 367.4 93.86 369.53 93.86 369.53 92.8 370.61 92.8 370.61 91.72 371.67 91.72 371.67 90.66 372.74 90.66 372.74 89.59 373.81 89.59 373.81 87.45 374.88 87.45 374.88 85.31 375.97 85.31 375.97 82.11 377.05 82.11 377.05 79.98 397.33 79.98 397.33 82.11 396.35 82.11 396.35 87.46 395.28 87.46 395.28 90.66 394.17 90.66 394.17 93.87 393.11 93.87 393.11 96.01 392.04 96.01 392.04 98.14 390.97 98.14 390.97 100.28 389.9 100.28 389.9 102.42 388.84 102.42 388.84 103.48 387.76 103.48 387.76 104.55 386.7 104.55 386.7 105.62 385.63 105.62 385.63 106.69 384.56 106.69 384.56 107.75 383.49 107.75 383.49 108.83 382.43 108.83 382.43 109.89 380.29 109.89 380.29 110.96 378.16 110.96 378.16 112.02 377.08 112.02 377.08 113.1 374.95 113.1 374.95 114.16 372.81 114.16 372.81 115.23 370.67 115.23 370.67 116.31 365.52 116.31 365.52 117.38 348.43 117.38 348.43 116.31 343.28 116.31 343.28 115.23 341.14 115.23 341.14 114.16 339.01 114.16 339.01 113.1 336.87 113.1 336.87 112.02 335.8 112.02 335.8 110.96 333.66 110.96 333.66 109.89 331.52 109.89 331.52 108.83 330.46 108.83 330.46 107.75 329.39 107.75 329.39 106.69 328.32 106.69 328.32 105.62 327.25 105.62 327.25 104.55 326.18 104.55 326.18 103.48 325.11 103.48 325.11 102.42 324.04 102.42 324.04 100.28 322.98 100.28 322.98 98.14 321.9 98.14 321.9 96.01 320.84 96.01 320.84 93.87 319.77 93.87 319.77 90.66 318.66 90.66 318.66 87.46 317.6 87.46 317.6 82.11 316.51 82.11 316.51 72.49 317.58 72.49 317.58 67.16 318.64 67.16 318.64 63.96 319.76 63.96 319.76 60.75 320.82 60.75 320.82 58.61 321.89 58.61 321.89 56.48 322.96 56.48 322.96 54.34 324.03 54.34 324.03 52.2 325.09 52.2 325.09 51.14 326.17 51.14 326.17 50.07 327.23 50.07 327.23 49 328.3 49 328.3 47.93 329.37 47.93 329.37 46.87 330.44 46.87 330.44 45.79 331.5 45.79 331.5 44.72 333.64 44.72 333.64 43.66 335.78 43.66 335.78 42.58 336.85 42.58 336.85 41.52 338.99 41.52 338.99 40.45 341.12 40.45 341.12 39.38 343.26 39.38 343.26 38.31 348.41 38.31 348.41 37.24 365.51 37.24 365.51 38.31 370.65 38.31 370.65 39.38 372.79 39.38 372.79 40.45 374.92 40.45 374.92 41.52 377.06 41.52 377.06 42.58 378.13 42.58 378.13 43.66 380.27 43.66 380.27 44.72 382.41 44.72 382.41 45.79 383.47 45.79 383.47 46.87 384.54 46.87 384.54 47.93 385.61 47.93 385.61 49 386.68 49 386.68 50.07 387.74 50.07 387.74 51.14 388.82 51.14 388.82 52.2 389.88 52.2 389.88 54.34 390.95 54.34 390.95 56.48 392.02 56.48 392.02 58.61 393.09 58.61 393.09 60.75 394.15 60.75 394.15 63.96 395.27 63.96 395.27 67.16 396.33 67.16 396.33 72.5 397.33 72.5 397.33 74.64 377.06 74.64"/>
    </g>

    <!-- Sword drops -->
    <g class="swordWrap">
      <rect class="swordPartBlade" x="224.43" y="52.12" width="2.01" height="58.06"/>
      <rect class="swordPartCyan" x="206.51" y="37.05" width="37.85" height="15.07"/>
      <polygon class="swordPartBlade" points="234.85 52.12 234.85 112.19 233.84 112.19 233.84 114.2 232.84 114.2 232.84 116.21 231.83 116.21 231.83 118.22 230.83 118.22 230.83 120.23 229.82 120.23 229.82 122.24 228.82 122.24 228.82 124.25 227.81 124.25 227.81 126.26 226.81 126.26 226.81 128.27 225.8 128.27 225.8 130.28 224.8 130.28 224.8 128.27 223.79 128.27 223.79 126.26 222.79 126.26 222.79 124.25 221.78 124.25 221.78 122.24 220.78 122.24 220.78 120.23 219.77 120.23 219.77 118.22 218.77 118.22 218.77 116.21 217.76 116.21 217.76 114.2 216.75 114.2 216.75 112.19 215.75 112.19 215.75 52.13 216.75 52.13 216.75 52.12 217.76 52.12 217.76 112.19 218.77 112.19 218.77 114.2 219.77 114.2 219.77 116.21 220.78 116.21 220.78 118.22 221.78 118.22 221.78 120.23 222.79 120.23 222.79 122.24 223.79 122.24 223.79 124.25 224.8 124.25 224.8 126.26 225.8 126.26 225.8 124.25 226.81 124.25 226.81 122.24 227.81 122.24 227.81 120.23 228.82 120.23 228.82 118.22 229.82 118.22 229.82 116.21 230.83 116.21 230.83 114.2 231.83 114.2 231.83 112.19 232.84 112.19 232.84 52.12 234.85 52.12"/>
      <rect class="swordPartCyan" x="213.46" y="9.18" width="23.89" height="8.86"/>
      <rect class="swordPartCyan" x="230.99" y="18.04" width="1.01" height="19.01"/>
      <rect class="swordPartCyan" x="218.9" y="18.04" width="1.01" height="19.01"/>
    </g>

    <!-- Final combined logo (with sword) -->
    <g class="final">
      <polygon points="195.32 37.07 195.32 115.03 176.36 115.03 176.36 113.95 175.29 113.95 175.29 111.82 174.22 111.82 174.22 109.68 173.16 109.68 173.16 107.54 172.08 107.54 172.08 105.41 171.02 105.41 171.02 103.27 169.95 103.27 169.95 101.13 168.89 101.13 168.89 99 167.81 99 167.81 96.86 166.75 96.86 166.75 94.72 165.68 94.72 165.68 92.59 164.61 92.59 164.61 90.45 163.54 90.45 163.54 88.32 163.41 88.32 163.41 88.4 162.35 88.4 162.35 86.26 161.27 86.26 161.27 84.13 160.21 84.13 160.21 81.99 159.14 81.99 159.14 79.85 158.08 79.85 158.08 77.72 157 77.72 157 75.58 155.94 75.58 155.94 73.45 154.87 73.45 154.87 115.03 135.91 115.03 135.91 37.07 154.87 37.07 154.87 38.17 155.94 38.17 155.94 40.3 157 40.3 157 42.44 158.08 42.44 158.08 44.59 159.14 44.59 159.14 46.72 160.21 46.72 160.21 48.86 161.27 48.86 161.27 51 162.35 51 162.35 53.13 163.41 53.13 163.41 55.27 164.48 55.27 164.48 57.41 165.55 57.41 165.55 59.54 166.62 59.54 166.62 61.68 167.68 61.68 167.68 63.73 168.89 63.73 168.89 65.87 169.95 65.87 169.95 68 171.02 68 171.02 70.14 172.08 70.14 172.08 72.28 173.16 72.28 173.16 74.41 174.22 74.41 174.22 76.55 175.29 76.55 175.29 78.69 176.36 78.69 176.36 37.07 195.32 37.07"/>
      <polygon points="636.77 37.07 636.77 115.03 617.81 115.03 617.81 113.95 616.75 113.95 616.75 111.82 615.67 111.82 615.67 109.68 614.61 109.68 614.61 107.54 613.54 107.54 613.54 105.41 612.47 105.41 612.47 103.27 611.4 103.27 611.4 101.13 610.34 101.13 610.34 99 609.26 99 609.26 96.86 608.2 96.86 608.2 94.72 607.13 94.72 607.13 92.59 606.06 92.59 606.06 90.45 604.99 90.45 604.99 88.32 604.86 88.32 604.86 88.4 603.8 88.4 603.8 86.26 602.73 86.26 602.73 84.13 601.66 84.13 601.66 81.99 600.59 81.99 600.59 79.85 599.53 79.85 599.53 77.72 598.45 77.72 598.45 75.58 597.39 75.58 597.39 73.45 596.32 73.45 596.32 115.03 577.37 115.03 577.37 37.07 596.32 37.07 596.32 38.17 597.39 38.17 597.39 40.3 598.45 40.3 598.45 42.44 599.53 42.44 599.53 44.59 600.59 44.59 600.59 46.72 601.66 46.72 601.66 48.86 602.73 48.86 602.73 51 603.8 51 603.8 53.13 604.86 53.13 604.86 55.27 605.94 55.27 605.94 57.41 607 57.41 607 59.54 608.07 59.54 608.07 61.68 609.14 61.68 609.14 63.73 610.34 63.73 610.34 65.87 611.4 65.87 611.4 68 612.47 68 612.47 70.14 613.54 70.14 613.54 72.28 614.61 72.28 614.61 74.41 615.67 74.41 615.67 76.55 616.75 76.55 616.75 78.69 617.81 78.69 617.81 37.07 636.77 37.07"/>
      <polygon points="39.09 56.3 39.09 69.03 60.26 69.03 60.26 85.06 39.09 85.06 39.09 115.03 20.02 115.03 20.02 37.07 62.16 37.07 62.16 56.3 39.09 56.3"/>
      <polygon points="470.89 56.32 470.89 69.06 492.08 69.06 492.08 85.08 470.89 85.08 470.89 95.79 493.97 95.79 493.97 115.03 451.84 115.03 451.84 37.09 493.97 37.09 493.97 56.32 470.89 56.32"/>
      <polygon points="445.34 95.79 445.34 115.03 403.21 115.03 403.21 37.07 422.28 37.07 422.28 95.79 445.34 95.79"/>
      <g>
        <rect class="swordPartBlade" x="224.43" y="52.12" width="2.01" height="58.06"/>
        <rect class="swordPartCyan" x="206.51" y="37.05" width="37.85" height="15.07"/>
        <polygon class="swordPartBlade" points="234.85 52.12 234.85 112.19 233.84 112.19 233.84 114.2 232.84 114.2 232.84 116.21 231.83 116.21 231.83 118.22 230.83 118.22 230.83 120.23 229.82 120.23 229.82 122.24 228.82 122.24 228.82 124.25 227.81 124.25 227.81 126.26 226.81 126.26 226.81 128.27 225.8 128.27 225.8 130.28 224.8 130.28 224.8 128.27 223.79 128.27 223.79 126.26 222.79 126.26 222.79 124.25 221.78 124.25 221.78 122.24 220.78 122.24 220.78 120.23 219.77 120.23 219.77 118.22 218.77 118.22 218.77 116.21 217.76 116.21 217.76 114.2 216.75 114.2 216.75 112.19 215.75 112.19 215.75 52.13 216.75 52.13 216.75 52.12 217.76 52.12 217.76 112.19 218.77 112.19 218.77 114.2 219.77 114.2 219.77 116.21 220.78 116.21 220.78 118.22 221.78 118.22 221.78 120.23 222.79 120.23 222.79 122.24 223.79 122.24 223.79 124.25 224.8 124.25 224.8 126.26 225.8 126.26 225.8 124.25 226.81 124.25 226.81 122.24 227.81 122.24 227.81 120.23 228.82 120.23 228.82 118.22 229.82 118.22 229.82 116.21 230.83 116.21 230.83 114.2 231.83 114.2 231.83 112.19 232.84 112.19 232.84 52.12 234.85 52.12"/>
        <rect class="swordPartCyan" x="213.46" y="9.18" width="23.89" height="8.86"/>
        <rect class="swordPartCyan" x="230.99" y="18.04" width="1.01" height="19.01"/>
        <rect class="swordPartCyan" x="218.9" y="18.04" width="1.01" height="19.01"/>
      </g>
      <path d="M128.49,111.83v-3.21h-1.07v-3.2h-1.06v-3.21h-1.07v-3.2h-1.06v-3.21h-1.07v-3.2h-1.07v-3.21h-1.06v-3.2h-1.07v-3.21h-1.06v-3.21h-1.07v-3.2h-1.06v-3.21h-1.07v-3.2h-1.06v-3.21h-1.07v-3.2h-1.06v-3.21h-1.07v-3.11h-1.06v-3.21h-1.07v-3.2h-1.06v-3.21h-1.07v-3.2h-1.06v-3.21h-1.07v-3.2h-1.06v-1.07h-20.15v1.07h-1.06v3.2h-1.07v3.21h-1.06v3.2h-1.07v3.21h-1.06v3.2h-1.07v3.21h-1.06v3.11h-1.07v3.21h-1.06v3.2h-1.07v3.21h-1.06v3.2h-1.07v3.21h-1.06v3.2h-1.07v3.21h-1.07v3.21h-1.06v3.2h-1.07v3.21h-1.06v3.2h-1.07v3.21h-1.06v3.2h-1.07v3.21h-1.06v3.2h-1.07v3.21h-1.06v3.2h19.23v-3.2h1.07v-3.21h1.06v-3.2h28.7v3.2h1.06v3.21h1.07v3.2h19.23v-3.2h-1.06ZM100.29,88.33h-11.75v-2.14h1.06v-3.21h1.07v-3.21h1.06v-3.2h1.07v-3.21h1.06v-3.2h1.07v3.2h1.06v3.21h1.07v3.2h1.06v3.21h1.07v3.21h1.06v2.14Z"/>
      <path d="M317.26,111.83v-3.21h-1.07v-3.2h-1.06v-3.21h-1.07v-3.2h-1.06v-3.21h-1.07v-3.2h-1.07v-3.21h-1.06v-3.2h-1.07v-3.21h-1.06v-3.21h-1.07v-3.2h-1.06v-3.21h-1.07v-3.2h-1.06v-3.21h-1.07v-3.2h-1.06v-3.21h-1.07v-3.11h-1.06v-3.21h-1.07v-3.2h-1.06v-3.21h-1.07v-3.2h-1.06v-3.21h-1.07v-3.2h-1.06v-1.07h-20.15v1.07h-1.06v3.2h-1.07v3.21h-1.06v3.2h-1.07v3.21h-1.06v3.2h-1.07v3.21h-1.06v3.11h-1.07v3.21h-1.06v3.2h-1.07v3.21h-1.06v3.2h-1.07v3.21h-1.06v3.2h-1.07v3.21h-1.07v3.21h-1.06v3.2h-1.07v3.21h-1.06v3.2h-1.07v3.21h-1.06v3.2h-1.07v3.21h-1.06v3.2h-1.07v3.21h-1.06v3.2h19.23v-3.2h1.07v-3.21h1.06v-3.2h28.7v3.2h1.06v3.21h1.07v3.2h19.23v-3.2h-1.06ZM289.06,88.33h-11.75v-2.14h1.06v-3.21h1.07v-3.21h1.06v-3.2h1.07v-3.21h1.06v-3.2h1.07v3.2h1.06v3.21h1.07v3.2h1.06v3.21h1.07v3.21h1.06v2.14Z"/>
      <path d="M570.32,111.83v-3.21h-1.07v-3.2h-1.06v-3.21h-1.07v-3.2h-1.06v-3.21h-1.07v-3.2h-1.07v-3.21h-1.06v-3.2h-1.07v-3.21h-1.06v-3.21h-1.07v-3.2h-1.06v-3.21h-1.07v-3.2h-1.06v-3.21h-1.07v-3.2h-1.06v-3.21h-1.07v-3.11h-1.06v-3.21h-1.07v-3.2h-1.06v-3.21h-1.07v-3.2h-1.06v-3.21h-1.07v-3.2h-1.06v-1.07h-20.15v1.07h-1.06v3.2h-1.07v3.21h-1.06v3.2h-1.07v3.21h-1.06v3.2h-1.07v3.21h-1.06v3.11h-1.07v3.21h-1.06v3.2h-1.07v3.21h-1.06v3.2h-1.07v3.21h-1.06v3.2h-1.07v3.21h-1.07v3.21h-1.06v3.2h-1.07v3.21h-1.06v3.2h-1.07v3.21h-1.06v3.2h-1.07v3.21h-1.06v3.2h-1.07v3.21h-1.06v3.2h19.23v-3.2h1.07v-3.21h1.06v-3.2h28.7v3.2h1.06v3.21h1.07v3.2h19.23v-3.2h-1.06ZM542.12,88.33h-11.75v-2.14h1.06v-3.21h1.07v-3.21h1.06v-3.2h1.07v-3.21h1.06v-3.2h1.07v3.2h1.06v3.21h1.07v3.2h1.06v3.21h1.07v3.21h1.06v2.14Z"/>
      <polygon points="376.04 72.29 376.04 70.15 374.96 70.15 374.96 66.95 373.87 66.95 373.87 64.81 372.8 64.81 372.8 62.68 371.73 62.68 371.73 61.6 370.66 61.6 370.66 60.53 369.6 60.53 369.6 59.47 368.52 59.47 368.52 58.39 366.39 58.39 366.39 57.33 365.32 57.33 365.32 56.26 363.19 56.26 363.19 55.19 358.9 55.19 358.9 54.11 353.57 54.11 352.5 54.12 352.5 55.19 348.22 55.19 348.22 56.26 346.09 56.26 346.09 57.33 345.02 57.33 345.02 58.39 342.89 58.39 342.89 59.47 341.81 59.47 341.81 60.53 340.75 60.53 340.75 61.6 339.68 61.6 339.68 62.67 338.61 62.67 338.61 64.8 337.54 64.8 337.54 66.94 336.46 66.94 336.46 70.15 335.38 70.15 335.36 70.16 335.36 79.76 336.45 79.76 336.45 82.97 337.53 82.97 337.53 85.11 338.6 85.11 338.6 87.24 339.67 87.24 339.67 88.3 340.74 88.3 340.74 89.38 341.8 89.38 341.8 90.44 342.88 90.44 342.88 91.51 345.01 91.51 345.01 92.58 346.08 92.58 346.08 93.65 348.21 93.65 348.21 94.71 352.5 94.71 352.5 95.8 358.9 95.8 358.9 94.71 363.18 94.71 363.18 93.64 365.31 93.64 365.31 92.58 366.38 92.58 366.38 91.5 368.51 91.5 368.51 90.44 369.59 90.44 369.59 89.37 370.65 89.37 370.65 88.3 371.72 88.3 371.72 87.23 372.79 87.23 372.79 85.09 373.86 85.09 373.86 82.96 374.94 82.96 374.94 79.76 376.03 79.76 376.03 77.62 396.31 77.62 396.31 79.76 395.33 79.76 395.33 85.11 394.26 85.11 394.26 88.3 393.15 88.3 393.15 91.51 392.09 91.51 392.09 93.65 391.02 93.65 391.02 95.79 389.95 95.79 389.95 97.92 388.88 97.92 388.88 100.06 387.82 100.06 387.82 101.12 386.74 101.12 386.74 102.2 385.68 102.2 385.68 103.26 384.61 103.26 384.61 104.33 383.54 104.33 383.54 105.4 382.47 105.4 382.47 106.47 381.41 106.47 381.41 107.53 379.27 107.53 379.27 108.61 377.13 108.61 377.13 109.67 376.06 109.67 376.06 110.74 373.92 110.74 373.92 111.81 371.79 111.81 371.79 112.88 369.65 112.88 369.65 113.95 364.5 113.95 364.5 115.03 347.4 115.03 347.4 113.95 342.26 113.95 342.26 112.88 340.12 112.88 340.12 111.81 337.99 111.81 337.99 110.74 335.85 110.74 335.85 109.67 334.78 109.67 334.78 108.61 332.64 108.61 332.64 107.53 330.5 107.53 330.5 106.47 329.44 106.47 329.44 105.4 328.37 105.4 328.37 104.33 327.3 104.33 327.3 103.26 326.23 103.26 326.23 102.2 325.16 102.2 325.16 101.12 324.09 101.12 324.09 100.06 323.02 100.06 323.02 97.92 321.96 97.92 321.96 95.79 320.88 95.79 320.88 93.65 319.82 93.65 319.82 91.51 318.75 91.51 318.75 88.3 317.64 88.3 317.64 85.11 316.58 85.11 316.58 79.76 315.48 79.76 315.48 70.14 316.56 70.14 316.56 64.8 317.62 64.8 317.62 61.6 318.74 61.6 318.74 58.39 319.8 58.39 319.8 56.26 320.87 56.26 320.87 54.12 321.94 54.12 321.94 51.98 323.01 51.98 323.01 49.85 324.07 49.85 324.07 48.79 325.15 48.79 325.15 47.71 326.21 47.71 326.21 46.65 327.28 46.65 327.28 45.58 328.35 45.58 328.35 44.51 329.42 44.51 329.42 43.44 330.48 43.44 330.48 42.37 332.62 42.37 332.62 41.3 334.76 41.3 334.76 40.23 335.83 40.23 335.83 39.17 337.97 39.17 337.97 38.09 340.1 38.09 340.1 37.03 342.24 37.03 342.24 35.96 347.39 35.96 347.39 34.88 364.49 34.88 364.49 35.96 369.63 35.96 369.63 37.03 371.77 37.03 371.77 38.09 373.9 38.09 373.9 39.17 376.04 39.17 376.04 40.23 377.11 40.23 377.11 41.3 379.25 41.3 379.25 42.37 381.39 42.37 381.39 43.44 382.45 43.44 382.45 44.51 383.52 44.51 383.52 45.58 384.59 45.58 384.59 46.65 385.66 46.65 385.66 47.71 386.72 47.71 386.72 48.79 387.8 48.79 387.8 49.85 388.86 49.85 388.86 51.98 389.93 51.98 389.93 54.12 390.99 54.12 390.99 56.26 392.07 56.26 392.07 58.39 393.13 58.39 393.13 61.6 394.25 61.6 394.25 64.8 395.31 64.8 395.31 70.15 396.31 70.15 396.31 72.29 376.04 72.29"/>
    </g>
  </g>
</svg>
