<?xml version="1.0" encoding="UTF-8"?>
<svg id="Layer_1" data-name="Layer 1" xmlns="http://www.w3.org/2000/svg" viewBox="0 0 647.28 144">
  <rect x="224.43" y="52.12" width="2.01" height="58.06"/>
  <rect x="206.51" y="37.05" width="37.85" height="15.07"/>
  <polygon points="234.85 52.12 234.85 112.19 233.84 112.19 233.84 114.2 232.84 114.2 232.84 116.21 231.83 116.21 231.83 118.22 230.83 118.22 230.83 120.23 229.82 120.23 229.82 122.24 228.82 122.24 228.82 124.25 227.81 124.25 227.81 126.26 226.81 126.26 226.81 128.27 225.8 128.27 225.8 130.28 224.8 130.28 224.8 128.27 223.79 128.27 223.79 126.26 222.79 126.26 222.79 124.25 221.78 124.25 221.78 122.24 220.78 122.24 220.78 120.23 219.77 120.23 219.77 118.22 218.77 118.22 218.77 116.21 217.76 116.21 217.76 114.2 216.75 114.2 216.75 112.19 215.75 112.19 215.75 52.13 216.75 52.13 216.75 52.12 217.76 52.12 217.76 112.19 218.77 112.19 218.77 114.2 219.77 114.2 219.77 116.21 220.78 116.21 220.78 118.22 221.78 118.22 221.78 120.23 222.79 120.23 222.79 122.24 223.79 122.24 223.79 124.25 224.8 124.25 224.8 126.26 225.8 126.26 225.8 124.25 226.81 124.25 226.81 122.24 227.81 122.24 227.81 120.23 228.82 120.23 228.82 118.22 229.82 118.22 229.82 116.21 230.83 116.21 230.83 114.2 231.83 114.2 231.83 112.19 232.84 112.19 232.84 52.12 234.85 52.12"/>
  <rect x="213.46" y="9.18" width="23.89" height="8.86"/>
  <rect x="230.99" y="18.04" width="1.01" height="19.01"/>
  <rect x="218.9" y="18.04" width="1.01" height="19.01"/>
</svg>