<?xml version="1.0" encoding="UTF-8"?>
<svg id="Layer_1" data-name="Layer 1" xmlns="http://www.w3.org/2000/svg" viewBox="0 0 161.22 144">
  <defs>
    <style>
      .cls-1 {
        fill: aqua;
      }
    </style>
  </defs>
  <path class="cls-1" d="M111.07,58.09v-6.04h6.09v-6.04h-6.09v-6.04h-6.1v-6.04h-6.09v6.04h-6.09v6.04h-6.09v-12.08h-18.28v12.08h-6.1v-6.04h-6.09v-6.04h-6.09v6.04h-6.09v6.04h-6.1v6.04h6.1v6.04h6.09v6.04h-12.19v18.13h12.19v6.04h-6.09v6.04h-6.1v6.04h6.1v6.04h6.09v6.04h6.09v-6.04h6.09v-6.04h6.1v12.08h18.28v-12.08h6.09v6.04h6.09v6.04h6.09v-6.04h6.1v-6.04h6.09v-6.04h-6.09v-6.04h-6.1v-6.04h12.19v-18.13h-12.19v-6.04h6.1ZM86.7,82.26v6.04h-18.28v-6.04h-6.1v-18.13h6.1v-6.04h18.28v6.04h6.09v18.13h-6.09Z"/>
</svg>