<?xml version="1.0" encoding="UTF-8"?>
<svg id="Layer_1" data-name="Layer 1" xmlns="http://www.w3.org/2000/svg" viewBox="0 0 4085.49 4435.82">
  <defs>
    <style>
      .cls-1 {
        fill: none;
        stroke: #fff;
        stroke-miterlimit: 10;
        stroke-width: 6px;
      }
    </style>
  </defs>
  <circle class="cls-1" cx="2042.74" cy="2318.13" r="1592.52"/>
  <path class="cls-1" d="M2047.14,3647.06c-179.54,0-353.54-35.09-517.19-104.31-158.21-66.92-300.36-162.78-422.51-284.92-122.14-122.14-218.01-264.3-284.92-422.51-69.21-163.64-104.31-337.65-104.31-517.18s35.09-353.54,104.31-517.19c66.92-158.21,162.78-300.36,284.92-422.51,122.14-122.14,264.3-218.01,422.51-284.93,163.64-69.21,337.65-104.31,517.19-104.31s353.54,35.09,517.19,104.31c158.21,66.92,300.36,162.78,422.51,284.93,122.14,122.14,218.01,264.3,284.93,422.51,69.21,163.64,104.31,337.65,104.31,517.19s-35.09,353.54-104.31,517.18c-66.92,158.21-162.78,300.36-284.93,422.51-122.14,122.14-264.3,218.01-422.51,284.92-163.64,69.21-337.65,104.31-517.19,104.31Z"/>
  <path class="cls-1" d="M2040.14,3415.63c-148.4,0-292.08-28.94-427.03-86.02-130.62-55.25-248.05-134.46-349.02-235.43-100.97-100.97-180.18-218.4-235.42-349.02-57.08-134.95-86.02-278.62-86.02-427.02s28.94-292.08,86.02-427.03c55.25-130.62,134.46-248.05,235.43-349.02,100.97-100.97,218.4-180.18,349.02-235.42,134.95-57.08,278.62-86.02,427.03-86.02s292.08,28.94,427.03,86.02c130.63,55.25,248.05,134.46,349.02,235.42,100.97,100.98,180.18,218.4,235.42,349.02,57.08,134.95,86.02,278.62,86.02,427.03s-28.94,292.08-86.02,427.02c-55.25,130.62-134.46,248.05-235.43,349.03-100.96,100.96-218.39,180.17-349.02,235.42-134.95,57.08-278.62,86.02-427.02,86.02Z"/>
  <path class="cls-1" d="M2047.14,3207.84c-120.44,0-236.89-23.42-346.1-69.61-105.86-44.78-201.08-109.03-283.03-190.98-81.95-81.95-146.2-177.17-190.98-283.04-46.19-109.21-69.61-225.65-69.61-346.09s23.42-236.88,69.61-346.09c44.78-105.86,109.03-201.08,190.98-283.03,81.94-81.95,177.17-146.2,283.04-190.98,109.2-46.19,225.65-69.61,346.09-69.61s236.88,23.42,346.09,69.61c105.86,44.78,201.08,109.03,283.04,190.98,81.95,81.96,146.2,177.18,190.97,283.03,46.19,109.21,69.61,225.65,69.61,346.09s-23.42,236.88-69.61,346.08c-44.77,105.86-109.03,201.09-190.98,283.05-81.94,81.94-177.17,146.2-283.04,190.97-109.2,46.19-225.64,69.61-346.08,69.61Z"/>
  <path class="cls-1" d="M2047.14,2998.7c-92.3,0-181.33-17.86-264.62-53.09-80.93-34.24-153.81-83.44-216.61-146.24-62.81-62.81-112.01-135.69-146.25-216.63-35.23-83.28-53.09-172.31-53.09-264.61s17.86-181.33,53.09-264.62c34.24-80.93,83.44-153.81,146.25-216.62,62.8-62.81,135.69-112.01,216.62-146.24,83.28-35.23,172.31-53.09,264.61-53.09s181.33,17.86,264.62,53.09c80.93,34.24,153.81,83.44,216.62,146.25,62.81,62.81,112.01,135.69,146.24,216.61,35.22,83.29,53.09,172.32,53.09,264.62s-17.86,181.33-53.09,264.6c-34.23,80.94-83.43,153.83-146.25,216.64-62.8,62.8-135.68,112-216.62,146.24-83.28,35.23-172.3,53.09-264.61,53.09Z"/>
  <path class="cls-1" d="M2047.14,2852.29c-72.6,0-142.45-13.97-207.6-41.52-63.47-26.85-120.71-65.52-170.11-114.93-49.42-49.41-88.08-106.66-114.94-170.15-27.55-65.13-41.52-134.97-41.52-207.57s13.97-142.44,41.52-207.59c26.85-63.47,65.52-120.71,114.93-170.12,49.41-49.41,106.65-88.08,170.14-114.93,65.13-27.55,134.97-41.52,207.58-41.52s142.44,13.97,207.59,41.52c63.47,26.85,120.71,65.52,170.13,114.94,49.4,49.4,88.07,106.64,114.92,170.12,27.55,65.14,41.52,134.99,41.52,207.58s-13.97,142.44-41.52,207.56c-26.85,63.5-65.53,120.75-114.94,170.16-49.4,49.4-106.64,88.07-170.13,114.92-65.13,27.55-134.97,41.52-207.57,41.52Z"/>
  <path class="cls-1" d="M2047.14,2705.89c-52.9,0-103.56-10.08-150.57-29.96-46.01-19.46-87.6-47.59-123.6-83.6-36.03-36.02-64.16-77.62-83.64-123.67-19.87-46.98-29.95-97.63-29.95-150.53s10.08-103.56,29.96-150.57c19.47-46.01,47.6-87.61,83.61-123.61,36.01-36.02,77.61-64.15,123.65-83.62,46.99-19.88,97.64-29.96,150.54-29.96s103.56,10.08,150.57,29.96c46.01,19.47,87.61,47.61,123.63,83.62,36.01,36.01,64.14,77.6,83.6,123.62,19.88,47,29.96,97.65,29.96,150.55s-10.08,103.54-29.95,150.52c-19.48,46.06-47.61,87.66-83.63,123.67-36,36.01-77.6,64.14-123.64,83.61-46.99,19.88-97.64,29.96-150.54,29.96Z"/>
  <path class="cls-1" d="M2047.14,2584.58c-36.58,0-71.34-6.86-103.33-20.38-31.54-13.34-60.16-32.74-85.06-57.64-24.93-24.93-44.34-53.57-57.71-85.17-13.51-31.94-20.36-66.69-20.36-103.27s6.86-71.34,20.38-103.32c13.35-31.54,32.75-60.18,57.65-85.07,24.92-24.92,53.56-44.33,85.14-57.68,31.96-13.52,66.71-20.38,103.28-20.38s71.34,6.86,103.32,20.38c31.54,13.35,60.18,32.75,85.1,57.67,24.91,24.91,44.31,53.54,57.65,85.1,13.52,31.96,20.38,66.72,20.38,103.3s-6.85,71.31-20.37,103.26c-13.36,31.6-32.77,60.24-57.67,85.14-24.91,24.92-53.55,44.32-85.13,57.68-31.96,13.52-66.71,20.38-103.28,20.38Z"/>
  <path fill="#fff" d="M2158.84,2369.84c1.6,7.8,3.56,15.78,5.86,24.01-13.72.45-26.34,1.64-38.1,3.69-.43.07-.86.15-1.27.22-.06.41-.11.8-.17,1.21-1.79,13.03-2.49,27.03-2.25,42.4-9.81-2.87-19.27-5.25-28.46-7.15-6.44,8.52-12.71,17.59-18.89,27.31-10.42-10.41-20.53-19.34-30.69-26.92-10.74,8.66-21.39,18.91-32.39,30.94-7.02-11.24-14.13-21.63-21.44-31.33-7.8,1.6-15.78,3.56-24.01,5.86-.47-13.72-1.64-26.34-3.69-38.1-.07-.43-.15-.86-.22-1.28-.41-.06-.82-.11-1.23-.17-13.01-1.79-27.01-2.48-42.37-2.25,2.87-9.81,5.23-19.25,7.13-28.44-8.53-6.44-17.59-12.71-27.31-18.89,10.41-10.42,19.34-20.55,26.92-30.69-8.66-10.74-18.89-21.41-30.94-32.39,11.24-7.02,21.63-14.13,31.33-21.44-1.6-7.8-3.56-15.78-5.86-24.01,13.72-.47,26.34-1.64,38.1-3.69.43-.07.86-.15,1.28-.22.06-.41.11-.82.17-1.23,1.79-13.01,2.48-27.01,2.25-42.37,9.81,2.87,19.25,5.23,28.44,7.13,6.44-8.54,12.71-17.61,18.91-27.33,10.42,10.42,20.53,19.36,30.69,26.93,10.76-8.66,21.41-18.91,32.37-30.94,7.02,11.24,14.13,21.63,21.44,31.33,7.8-1.6,15.78-3.56,24.03-5.86.47,13.74,1.64,26.36,3.69,38.12.07.43.15.86.22,1.27.41.06.8.11,1.21.17,13.01,1.79,27.01,2.48,42.37,2.25-2.87,9.81-5.23,19.25-7.13,28.44,8.54,6.44,17.61,12.71,27.33,18.91-10.41,10.42-19.34,20.53-26.92,30.68,8.64,10.76,18.89,21.41,30.92,32.39-11.24,7.02-21.63,14.13-31.33,21.44Z"/>
</svg>