<?xml version="1.0" encoding="UTF-8"?>
<svg id="Layer_1" data-name="Layer 1" xmlns="http://www.w3.org/2000/svg" viewBox="0 0 688.45 686.88">
  <defs>
    <style>
      .cls-1 {
        fill: none;
        stroke: #000;
        stroke-miterlimit: 10;
        stroke-width: 30px;
      }
    </style>
  </defs>
  <path d="M594.68,180.61v412.32H182.37l-66.21,66.21h544.73V114.4l-66.21,66.21ZM31.88,30.13v544.73l66.21-66.21V96.34h412.32l66.21-66.21H31.88Z"/>
  <path d="M260.95,476.89l-163.52,163.52-46.82-46.82,147.38-147.38c19.9,13.14,41.01,23.43,62.96,30.68Z"/>
  <path d="M642.17,95.68l-160.65,160.64c-20.24-13.33-41.19-23.64-62.73-30.91l176.56-176.55,46.82,46.82Z"/>
  <path d="M533.85,329.64c-11.78-14.25-31.77-35.27-60.14-54.49-41.81-28.33-86.81-42.69-133.73-42.69s-91.92,14.36-133.73,42.69c-28.37,19.22-48.36,40.24-60.14,54.49l-17.68,21.4,17.68,21.4c51.79,62.67,120.64,97.18,193.87,97.18s142.08-34.51,193.87-97.18l17.68-21.4-17.68-21.4ZM339.98,409.11c-50.84,0-99.09-20.34-138.41-57.84,26.74-24.89,74.55-58.3,138.41-58.3s111.67,33.41,138.41,58.3c-39.32,37.5-87.57,57.84-138.41,57.84Z"/>
  <circle class="cls-1" cx="339.98" cy="351.04" r="26.84"/>
</svg>