<?xml version="1.0" encoding="UTF-8"?>
<svg id="Layer_1" data-name="Layer 1" xmlns="http://www.w3.org/2000/svg" viewBox="0 0 507.89 581.06">
  <path fill="#ffffff" d="M370.04,342.24c1.6,7.8,3.56,15.78,5.86,24.01-13.72.45-26.34,1.64-38.1,3.69-.43.07-.86.15-1.27.22-.06.41-.11.8-.17,1.21-1.79,13.03-2.49,27.03-2.25,42.4-9.81-2.87-19.27-5.25-28.46-7.15-6.44,8.52-12.71,17.59-18.89,27.31-10.42-10.41-20.53-19.34-30.69-26.92-10.74,8.66-21.39,18.91-32.39,30.94-7.02-11.24-14.13-21.63-21.44-31.33-7.8,1.6-15.78,3.56-24.01,5.86-.47-13.72-1.64-26.34-3.69-38.1-.07-.43-.15-.86-.22-1.28-.41-.06-.82-.11-1.23-.17-13.01-1.79-27.01-2.48-42.37-2.25,2.87-9.81,5.23-19.25,7.13-28.44-8.53-6.44-17.59-12.71-27.31-18.89,10.41-10.42,19.34-20.55,26.92-30.69-8.66-10.74-18.89-21.41-30.94-32.39,11.24-7.02,21.63-14.13,31.33-21.44-1.6-7.8-3.56-15.78-5.86-24.01,13.72-.47,26.34-1.64,38.1-3.69.43-.07.86-.15,1.28-.22.06-.41.11-.82.17-1.23,1.79-13.01,2.48-27.01,2.25-42.37,9.81,2.87,19.25,5.23,28.44,7.13,6.44-8.54,12.71-17.61,18.91-27.33,10.42,10.42,20.53,19.36,30.69,26.93,10.76-8.66,21.41-18.91,32.37-30.94,7.02,11.24,14.13,21.63,21.44,31.33,7.8-1.6,15.78-3.56,24.03-5.86.47,13.74,1.64,26.36,3.69,38.12.07.43.15.86.22,1.27.41.06.8.11,1.21.17,13.01,1.79,27.01,2.48,42.37,2.25-2.87,9.81-5.23,19.25-7.13,28.44,8.54,6.44,17.61,12.71,27.33,18.91-10.41,10.42-19.34,20.53-26.92,30.68,8.64,10.76,18.89,21.41,30.92,32.39-11.24,7.02-21.63,14.13-31.33,21.44Z"/>
</svg>