<?xml version="1.0" encoding="UTF-8"?>
<svg id="Layer_1" data-name="Layer 1" xmlns="http://www.w3.org/2000/svg" viewBox="0 0 1800 1800">
  <defs>
    <style>
      .cls-1 {
        stroke: #fff;
        stroke-width: 3px;
      }

      .cls-1, .cls-2 {
        fill: none;
        stroke-miterlimit: 10;
      }

      .cls-2 {
        stroke: #000;
        stroke-width: 30px;
      }
    </style>
  </defs>
  <g>
    <path d="M1148.29,735.98v412.32h-412.31l-66.21,66.21h544.73v-544.74l-66.21,66.21ZM585.5,585.5v544.73l66.21-66.21v-412.31h412.32l66.21-66.21h-544.74Z"/>
    <path d="M814.57,1032.26l-163.52,163.52-46.82-46.82,147.38-147.38c19.9,13.14,41.01,23.43,62.96,30.68Z"/>
    <path d="M1195.78,651.05l-160.65,160.64c-20.24-13.33-41.19-23.64-62.73-30.91l176.56-176.55,46.82,46.82Z"/>
    <path d="M1087.47,885.01c-11.78-14.25-31.77-35.27-60.14-54.49-41.81-28.33-86.81-42.69-133.73-42.69s-91.92,14.36-133.73,42.69c-28.37,19.22-48.36,40.24-60.14,54.49l-17.68,21.4,17.68,21.4c51.79,62.67,120.64,97.18,193.87,97.18s142.08-34.51,193.87-97.18l17.68-21.4-17.68-21.4ZM893.6,964.48c-50.84,0-99.09-20.34-138.41-57.84,26.74-24.89,74.55-58.3,138.41-58.3s111.67,33.41,138.41,58.3c-39.32,37.5-87.57,57.84-138.41,57.84Z"/>
    <circle class="cls-2" cx="893.6" cy="906.41" r="26.84"/>
  </g>
  <path class="cls-1" d="M3673.89-1262.53c28.62,91.7,44.04,189.15,44.04,290.13,0,538.09-437.77,975.86-975.86,975.86s-975.85-437.77-975.85-975.86,437.77-975.85,975.85-975.85c395.74,0,737.23,236.78,890.2,576.12"/>
</svg>